<svg xmlns="http://www.w3.org/2000/svg" width="533.333" height="533.333" preserveAspectRatio="xMidYMid meet" version="1.0" viewBox="0 0 400 400"><metadata>Created by potrace 1.11, written by Peter Selinger 2001-2013</metadata><g fill="#000" stroke="none"><path d="M590 3888 c0 -4 137 -546 176 -693 18 -71 49 -190 68 -263 24 -92 42 -142 58 -159 12 -14 73 -76 135 -138 l112 -111 1 -170 1 -169 -46 -170 c-26 -93 -57 -210 -71 -260 -13 -49 -27 -101 -30 -114 -3 -13 -18 -73 -34 -133 -17 -60 -30 -115 -30 -123 0 -9 25 -65 55 -125 30 -61 51 -110 47 -110 -4 0 -2 -4 5 -8 6 -4 13 -14 15 -22 2 -8 9 -21 16 -28 7 -8 10 -17 7 -22 -3 -5 -2 -10 2 -12 12 -5 64 -108 56 -108 -5 0 -2 -4 5 -9 7 -4 14 -18 15 -29 1 -12 4 -22 8 -22 4 0 12 -15 20 -32 7 -18 17 -36 22 -39 6 -4 5 -21 -2 -41 -18 -53 -21 -95 -7 -95 15 0 146 -94 146 -105 0 -4 5 -8 11 -8 10 0 76 -48 108 -78 8 -7 11 -25 9 -43 -4 -28 -1 -32 51 -60 31 -16 115 -60 186 -97 72 -38 166 -87 209 -110 l79 -41 37 19 c21 11 39 18 41 17 2 -1 3 0 2 2 -3 5 270 149 289 153 7 2 15 6 18 9 14 17 138 78 145 71 4 -4 3 3 -4 15 -6 12 -11 29 -11 39 0 18 60 75 72 68 4 -3 8 -1 8 4 0 9 84 73 91 69 2 -1 3 0 2 2 -2 2 19 19 45 36 71 48 75 55 61 110 -9 37 -9 52 1 73 8 15 14 29 15 32 7 23 20 48 33 63 8 9 12 17 9 17 -9 0 94 203 107 212 6 4 8 8 4 8 -4 0 17 49 46 108 l55 108 -108 405 -108 404 1 170 1 170 134 132 133 131 24 94 c12 51 44 172 69 268 84 315 187 731 182 736 -3 3 -20 -3 -38 -14 -19 -10 -137 -72 -264 -137 -126 -65 -236 -122 -242 -128 -10 -7 -13 -72 -13 -263 0 -140 -2 -254 -5 -254 -3 0 -36 17 -73 38 -204 115 -440 197 -632 220 -265 32 -580 -46 -897 -224 -34 -19 -66 -36 -70 -37 -4 -1 -8 117 -8 261 l0 264 -270 139 c-244 125 -285 145 -285 137z" transform="translate(0.000000,400.000000) scale(0.100000,-0.100000)"/></g></svg>