<?xml version="1.0" standalone="no"?>
<!DOCTYPE svg PUBLIC "-//W3C//DTD SVG 20010904//EN"
 "http://www.w3.org/TR/2001/REC-SVG-20010904/DTD/svg10.dtd">
<svg version="1.0" xmlns="http://www.w3.org/2000/svg"
 width="432.000000pt" height="432.000000pt" viewBox="0 0 432.000000 432.000000"
 preserveAspectRatio="xMidYMid meet">
<metadata>
Created by potrace 1.11, written by Peter Selinger 2001-2013
</metadata>
<g transform="translate(0.000000,432.000000) scale(0.100000,-0.100000)"
fill="#000000" stroke="none">
<path d="M4138 4168 c-8 -7 -33 -40 -54 -73 -120 -185 -361 -349 -602 -411
-83 -22 -114 -25 -217 -22 -99 3 -127 8 -160 25 -36 19 -33 13 42 -64 136
-141 252 -318 329 -500 21 -51 42 -93 47 -93 5 0 39 12 75 26 273 108 456 324
547 644 47 167 78 417 56 458 -13 25 -39 28 -63 10z"/>
<path d="M173 4139 c-30 -11 -37 -45 -28 -132 16 -171 68 -363 132 -492 107
-213 284 -368 511 -446 l53 -18 16 42 c38 94 134 276 181 342 27 39 89 112
136 162 57 60 78 87 59 78 -49 -26 -134 -38 -218 -31 -271 20 -559 186 -732
421 -51 68 -78 86 -110 74z"/>
<path d="M2065 3890 c-434 -39 -801 -306 -1016 -739 -88 -178 -166 -450 -172
-602 -2 -60 0 -64 25 -76 97 -48 462 -106 833 -133 191 -15 702 -15 910 0 425
29 790 98 811 154 9 22 -22 206 -56 335 -59 224 -150 414 -280 586 -219 288
-498 444 -851 475 -63 5 -116 9 -119 8 -3 0 -41 -4 -85 -8z"/>
<path d="M3061 2266 c-167 -28 -182 -32 -157 -44 19 -8 37 -33 59 -80 32 -66
32 -69 32 -217 0 -129 -3 -158 -22 -207 -82 -220 -268 -263 -513 -118 -30 18
-67 41 -81 51 l-27 19 -18 -28 c-71 -110 -243 -123 -325 -25 l-26 31 -44 -30
c-322 -218 -549 -145 -607 195 -20 121 -7 262 33 343 15 31 34 58 42 61 29 11
-10 23 -77 23 -68 0 -232 22 -289 39 -31 10 -33 9 -28 -12 64 -293 82 -429
102 -802 20 -375 39 -483 111 -625 115 -227 382 -391 842 -516 112 -31 129
-30 297 21 430 130 682 367 784 736 44 161 57 278 76 672 14 294 26 446 41
520 7 32 27 33 -205 -7z m-711 -948 c31 -15 71 -44 90 -63 l35 -37 -50 -44
c-77 -69 -161 -106 -239 -107 -55 -1 -75 5 -138 36 -40 20 -98 58 -128 85 -64
57 -62 65 25 108 88 42 142 53 250 51 86 -2 108 -6 155 -29z"/>
<path d="M2509 2161 c-30 -10 -70 -28 -87 -41 -30 -23 -82 -109 -82 -137 0
-19 196 -17 278 2 119 28 170 67 179 134 5 37 3 41 -21 51 -44 16 -204 11
-267 -9z"/>
</g>
</svg>
