<svg xmlns="http://www.w3.org/2000/svg" xmlns:xlink="http://www.w3.org/1999/xlink" width="100%" height="100%" fill-rule="evenodd" stroke-linejoin="round" stroke-miterlimit="1.414" clip-rule="evenodd" version="1.1" viewBox="0 0 1441 600" xml:space="preserve"><rect id="_404-island" width="1440" height="600" x=".344" y="0" fill="none"/><clipPath id="_clip1"><rect width="1440" height="600" x=".344" y="0"/></clipPath><g clip-path="url(#_clip1)"><path fill="currentColor" d="M1440.34,0l-1086.53,0l-353.473,0l0,664.2l1440,0l0,-664.2Z"/><g id="island"><g><g id="bottom-rock"><path fill="#9d8052" d="M67.291,325.05l-13.825,45.231l55.3,31.928l23.042,-93.122l-32.259,-18.625l-18.433,31.928l18.433,15.964l18.434,5.321l-18.434,0l-32.258,-18.625Z"/><path id="ground" fill="#d6caaf" d="M99.549,290.462l221.201,-127.71l202.766,117.068l-221.2,127.71l-202.767,-117.068Z"/><path fill="#9d8052" d="M145.633,306.426l-9.217,90.461l59.908,23.946l18.434,-63.855l-69.125,-50.552Z"/><path fill="#bba67d" d="M122.591,346.335l9.217,-37.248l13.825,-2.661l-9.217,90.461l-27.65,5.322"/><path fill="#bba67d" d="M219.366,359.639l0,85.14l-27.65,-15.964l23.042,-71.837l4.608,2.661Z"/><path fill="#9d8052" d="M219.366,359.639l82.95,47.891l13.825,34.588l-59.908,2.661l-18.434,-5.322l-18.433,5.322"/><path fill="#bba67d" d="M251.624,399.548l4.609,45.231l-18.434,-5.322l9.217,-42.57l4.608,2.661Z"/><path fill="#9d8052" d="M265.449,439.457l-4.608,23.946l64.517,10.642l-4.608,-23.945l-55.301,-10.643Z"/><path fill="#bba67d" d="M412.916,343.675l-27.65,69.176l-59.908,61.194l-4.608,-23.945l-9.217,-15.964l-9.217,-26.606l110.6,-63.855Z"/><path fill="#bba67d" d="M523.516,279.82l27.65,79.819l-55.3,31.927l-55.3,10.643l-9.216,-69.177l92.166,-53.212Z"/><path fill="#9d8052" d="M431.35,333.032l9.216,69.177l-55.3,10.642l27.65,-69.176l18.434,-10.643Z"/><path fill="#d6caaf" d="M274.666,434.136l-9.217,5.321l55.301,10.643l23.041,-23.946l-32.258,7.982l-36.867,0Z"/><path fill="#d6caaf" d="M477.433,354.317l-27.65,5.322l34.563,1.33l16.129,-14.634l-9.217,-5.321l-13.825,13.303Z"/><path fill="#d6caaf" d="M81.116,322.39l-13.825,2.66l32.258,18.625l18.434,0l-18.434,-5.321l-18.433,-15.964Z"/></g><g id="rock"><path fill="#706c64" fill-opacity=".25" d="M583.425,293.123l-5.152,28.953l18.433,10.642l18.434,-10.642l-13.282,-28.953l-9.216,5.321l-9.217,-5.321Z"/><path fill="#d6caaf" d="M583.425,293.123l9.217,-5.321l9.216,5.321l-9.216,5.321l-9.217,-5.321Z"/></g><g id="rock1"><path fill="#706c64" fill-opacity=".15" d="M595.918,392.679l-4.608,29.267l18.433,10.642l18.434,-10.642l-4.609,-29.267l-9.289,0.042l-18.361,-0.042Z"/><path fill="#d6caaf" d="M595.918,392.679l13.825,-7.982l13.825,7.982l-18.433,5.321l-9.217,-5.321Z"/></g><g id="rock2"><path fill="#706c64" fill-opacity=".15" d="M642.002,366.073l-4.609,29.266l27.65,15.964l55.301,-31.927l-23.042,-29.267l-36.939,16.005l-18.361,-0.041Z"/><path fill="#d6caaf" d="M642.002,366.073l18.433,-21.285l32.258,-2.661l4.609,7.982l-36.867,21.285l-18.433,-5.321Z"/></g><g id="tree12"><path fill="#755e50" d="M338.908,215.806l9.217,-5.321l0,-21.285l-9.217,5.321l-9.217,-5.321l0,21.285l9.217,5.321Z"/><path fill="#518c27" d="M338.908,194.521l27.65,-15.964l0,-31.927l-27.65,15.994l0,31.897Z"/><path fill="#76c429" d="M311.258,146.63l0.026,31.942l27.624,15.949l0,-31.927l-27.65,-15.964Z"/><path fill="#cced3b" d="M366.584,146.645l-27.676,-15.979l-27.65,15.964l27.65,15.994l27.676,-15.979Z"/></g><g id="tree121"><path fill="#755e50" d="M182.499,306.426l9.217,-5.321l0,-21.285l-9.217,5.321l-9.216,-5.321l0,21.285l9.216,5.321Z"/><path fill="#518c27" d="M182.499,285.141l27.65,-15.964l0,-31.927l-27.65,15.994l0,31.897Z"/><path fill="#76c429" d="M154.849,237.25l0.026,31.942l27.624,15.949l0,-31.927l-27.65,-15.964Z"/><path fill="#cced3b" d="M210.176,237.265l-27.677,-15.979l-27.65,15.964l27.65,15.994l27.677,-15.979Z"/></g><g id="tree122"><path fill="#755e50" d="M274.666,221.286l9.217,-5.321l0,-21.285l-9.217,5.321l-9.217,-5.321l0,21.285l9.217,5.321Z"/><path fill="#518c27" d="M274.666,200.001l27.65,-15.964l0,-31.927l-27.65,15.994l0,31.897Z"/><path fill="#76c429" d="M247.016,152.11l0.026,31.942l27.624,15.949l0,-31.927l-27.65,-15.964Z"/><path fill="#cced3b" d="M302.342,152.125l-27.676,-15.979l-27.65,15.964l27.65,15.994l27.676,-15.979Z"/></g></g><g><path fill="#baa67e" fill-rule="nonzero" d="M274.671,331.667l11.3,6.495l18.127,-10.465l-11.3,-6.496l8.212,-4.741l-12.865,-7.394l-8.212,4.741l-40.158,-23.083l-17.626,10.176l7.878,42.721l11.996,6.895l32.648,-18.849Zm-26.485,0.469l-5.544,-20.033l0.2,-0.116l20.166,11.592l-14.822,8.557Z"/><path fill="#baa67e" fill-rule="nonzero" d="M293.808,306.898c18.167,10.442 41.451,4.21 52.367,-2.093c11.617,-6.707 20.821,-19.532 2.915,-29.824l-17.906,-10.293c-19.036,-10.942 -42.252,-3.747 -51.766,1.746c-10.615,6.129 -22.117,19.479 -3.516,30.171l17.906,10.293Zm0.588,-21.471c-3.477,-1.998 -8.36,-6.189 -0.849,-10.526c8.713,-5.03 16.275,-0.684 18.274,0.466l18.776,10.792c1.912,1.099 9.561,5.496 0.848,10.526c-7.31,4.221 -14.449,1.733 -18.274,-0.466l-18.775,-10.792Z"/><path fill="#baa67e" fill-rule="nonzero" d="M398.454,260.201l11.3,6.495l18.127,-10.465l-11.3,-6.496l8.212,-4.741l-12.865,-7.395l-8.212,4.742l-40.158,-23.083l-17.626,10.176l7.878,42.721l11.996,6.895l32.648,-18.849Zm-26.485,0.469l-5.544,-20.033l0.2,-0.116l20.166,11.591l-14.822,8.558Z"/></g><path fill="#6fc5ff" fill-opacity=".626" d="M477.433,380.924l69.125,-34.589l-9.217,-26.606c0,0 39.984,16.929 59.133,25.036c2.41,1.021 4.219,3.091 4.906,5.616c0.688,2.525 0.179,5.227 -1.381,7.328c-9.399,12.661 -26.94,36.291 -38.241,51.516c-6.812,9.177 -16.818,15.467 -28.042,17.627c-22.992,4.425 -62.764,12.079 -82.039,15.788c-7.238,1.393 -13.885,4.942 -19.07,10.18c-16.449,16.62 -54.73,55.297 -79.609,80.434c-14.061,14.207 -35.057,19.028 -53.908,12.377c-35.525,-12.534 -92.444,-32.617 -119.617,-42.204c-9.943,-3.508 -18.304,-10.454 -23.576,-19.585c-6.096,-10.558 -14.391,-24.925 -20.495,-35.498c-5.267,-9.123 -13.83,-15.882 -23.928,-18.885c-30.041,-8.935 -95.092,-28.283 -123.092,-36.61c-3.338,-0.993 -6.082,-3.383 -7.525,-6.552c-1.442,-3.17 -1.441,-6.809 0.004,-9.977c3.715,-8.151 8.513,-18.679 12.115,-26.58c3.335,-7.316 9.325,-13.092 16.758,-16.157c25.683,-10.591 85.207,-35.139 85.207,-35.139l-4.608,7.982l-9.217,15.964l-13.825,2.66l-8.306,27.132l54.389,31.402l24.482,-0.831l60.453,25.485l-2.285,7.1l23.342,13.477l20.738,-1.33l15.263,6.151l10.082,5.821l-1.506,9.773l56.807,11.512l71.429,-65.185l46.164,-8.028l39.09,-6.605Z"/></g><g><g id="rock3"><path fill="#706c64" fill-opacity=".15" d="M1064.33,391.119l-4.958,8.588l14.873,8.587l14.874,-8.587l-4.958,-8.588l-9.916,5.725l-9.915,-5.725Z"/><path fill="#d6caaf" d="M1064.33,391.119l9.915,-5.725l9.916,5.725l-9.916,5.725l-9.915,-5.725Z"/></g><g id="rock4"><path fill="#706c64" fill-opacity=".15" d="M930.47,542.829l-4.957,8.587l14.873,8.587l14.874,-8.587l-4.958,-8.587l-9.916,5.725l-9.916,-5.725Z"/><path fill="#d6caaf" d="M930.47,542.829l9.916,-5.725l9.916,5.725l-9.916,5.725l-9.916,-5.725Z"/></g><g id="rock5"><path fill="#706c64" fill-opacity=".15" d="M992.863,475.803l-4.958,8.588l14.874,8.587l14.874,-8.587l-4.958,-8.588l-9.916,5.725l-9.916,-5.725Z"/><path fill="#d6caaf" d="M992.863,475.803l9.916,-5.725l9.916,5.725l-9.916,5.725l-9.916,-5.725Z"/></g><g id="rock6"><path fill="#706c64" fill-opacity=".15" d="M980.049,537.104l-4.958,8.587l14.874,8.588l14.874,-8.588l-4.958,-8.587l-9.916,5.725l-9.916,-5.725Z"/><path fill="#d6caaf" d="M980.049,537.104l9.916,-5.725l9.916,5.725l-9.916,5.725l-9.916,-5.725Z"/></g><path fill="#4cbcff" d="M782.376,482.045c-3.945,1.771 -6.565,5.602 -6.785,9.921c-0.219,4.318 1.999,8.395 5.743,10.557c14.582,8.42 34.646,20.004 50.318,29.052c14.31,8.262 32.315,6.351 44.572,-4.731c20.829,-18.773 53.191,-45.771 74.078,-52.714c44.959,-14.945 74.376,-27.291 93.212,-36.421c6.571,-3.254 10.818,-9.859 11.052,-17.187c0.234,-7.328 -3.583,-14.191 -9.933,-17.857c-9.628,-5.579 -20.473,-11.84 -30.682,-17.734c-22.216,-12.827 -50.22,-9.536 -68.857,8.093c-18.052,17.129 -41.023,36.475 -59.245,43.894c-29.245,11.908 -76.55,33.006 -103.473,45.127Z"/><path fill="#c59558" d="M934.521,419.703l32.121,-37.09l24.091,13.909l-16.061,46.363l-40.151,-23.182Z"/><path fill="#7b5000" d="M966.642,391.885l-24.091,32.455l24.091,13.909l16.061,-37.091l-16.061,-9.273Z"/><path fill="#592a00" d="M950.581,428.976l24.091,-32.454l11.215,6.475l-14.919,37.749l-20.387,-11.77Z"/><path fill="#c59558" d="M966.642,438.249l-8.03,-4.636l-88.335,-23.182l8.135,7.882l80.2,24.572l8.03,-4.636Z"/><path fill="#c59558" d="M905.681,425.469l-4.958,20.037l4.958,-2.863l4.958,-20.037l-4.958,2.863Z"/><path fill="#bf6d40" d="M900.723,451.231l0,-5.725l4.958,-2.863l4.958,-20.037l4.958,2.863l-4.958,20.037l-9.916,5.725Z"/><path fill="#c59558" d="M902.399,475.34l-7.889,-4.555l-0.141,-9.354l-24.092,-23.182l-8.03,4.636l32.263,37.009l7.889,-4.554Z"/><path fill="#706c64" d="M854.217,438.249l32.121,37.091l8.172,4.554l-32.263,-37.009l-8.03,-4.636Z"/><path fill="#a68a5e" d="M1024.67,345.32l-9.846,74.383l-40.152,23.182l16.061,-46.363l33.937,-51.202Z"/><path fill="#c59558" d="M994.923,425.469l24.79,-14.313l4.957,-8.587l-29.747,17.175l0,5.725Z"/><path fill="#bf6d40" d="M989.965,422.606l4.958,2.863l0,-5.725l-4.958,-2.863l0,5.725Z"/><path fill="#bf6d40" d="M870.277,475.34l-40.152,4.636l-40.152,-23.182l56.213,4.637l24.091,13.909Z"/><path fill="#c59558" d="M846.186,517.067l-16.061,-37.091l-40.152,-23.182l15.443,36.734l40.77,23.539"/><path fill="#a68a5e" d="M894.369,489.249l-24.092,-13.909l-40.152,4.636l16.061,37.091l48.183,-27.818Z"/><path fill="#bf6d40" d="M966.642,382.613l48.113,-43.018l9.915,5.725l-33.937,51.202l-24.091,-13.909Z"/><path fill="#bf6d40" d="M942.551,424.34l-71.575,-18.908l-0.699,4.999l88.335,23.182l-16.061,-9.273Z"/><path fill="#bf6d40" d="M862.247,442.885l8.03,-4.636l-8.03,-4.636l-8.03,4.636l8.03,4.636Z"/><path fill="#a6784e" d="M989.965,416.881l29.748,-17.174l4.957,2.862l-29.747,17.175l-4.958,-2.863"/></g><g><path fill="#4cbcff" d="M1187.19,504.985c-3.201,-1.847 -5.172,-5.262 -5.172,-8.958c0,-3.696 1.971,-7.111 5.172,-8.959c4.997,-2.884 10.694,-6.174 16.294,-9.407c17.976,-10.378 38.819,-14.686 59.436,-12.284c9.739,1.135 17.94,2.091 17.94,2.091c0,0 28.706,7.072 33.818,8.331c0.515,0.127 1.041,0.205 1.57,0.233c2.267,0.119 9.119,0.478 17.205,0.903c2.858,0.15 5.184,2.355 5.485,5.201c0.301,2.847 -1.512,5.49 -4.275,6.234c-17.384,4.684 -35.311,9.514 -38.532,10.382c-0.34,0.091 -0.677,0.195 -1.01,0.31c-3.936,1.364 -30.325,10.505 -50.45,17.477c-14.873,5.152 -31.251,3.591 -44.882,-4.28c-4.237,-2.446 -8.606,-4.968 -12.599,-7.274Z"/><path id="shark" fill="#666" d="M1231.16,484.577c0,0 8.956,-13.494 19.832,-22.899c7.62,-6.591 19.968,-12.712 26.08,-15.537c0.585,-0.268 1.275,-0.148 1.735,0.302c0.46,0.451 0.595,1.138 0.339,1.729c-1.705,3.948 -4.428,10.235 -6.291,14.538c-1.34,3.096 -2.032,6.433 -2.032,9.806c0,5.062 0,12.061 0,12.061c0,0 -2.63,1.519 -5.975,3.45c-8.574,4.95 -19.138,4.95 -27.712,0c-3.345,-1.931 -5.976,-3.45 -5.976,-3.45Z"/></g></g></svg>
