<?xml version="1.0" encoding="UTF-8"?>
<svg width="1440px" height="600px" viewBox="0 0 1440 600" version="1.1" xmlns="http://www.w3.org/2000/svg" xmlns:xlink="http://www.w3.org/1999/xlink">
    <!-- Generator: Sketch 46.2 (44496) - http://www.bohemiancoding.com/sketch -->
    <title>404-isometric</title>
    <desc>Created with Sketch.</desc>
    <defs>
        <rect id="path-1" x="0" y="0" width="1440" height="600"></rect>
    </defs>
    <g id="mockup" stroke="none" stroke-width="1" fill="none" fill-rule="evenodd">
        <g id="404" transform="translate(0.000000, -147.000000)">
            <g id="404-isometric" transform="translate(0.000000, 147.000000)">
                <rect id="_404.-island" x="0" y="0" width="1440" height="600"></rect>
                <g id="Clipped">
                    <mask id="mask-2" fill="white">
                        <use xlink:href="#path-1"></use>
                    </mask>
                    <g id="Rectangle-path"></g>
                    <g id="Group" mask="url(#mask-2)">
                        <g transform="translate(-1.000000, 0.000000)">
                            <polygon id="Shape" fill="#45B8F2" points="1441 0 354.47 0 0.996 0 0.996 664.2 1440.996 664.2 1440.996 0"></polygon>
                            <g id="Group" stroke-width="1" fill="none" transform="translate(282.000000, 267.000000)">
                                <polygon id="Shape" fill="#D6CAAF" points="224.711 228.089 397.906 128.083 390.988 116.089 224.711 212.089 72.29 124.089 65.352 136.083 224.711 228.089"></polygon>
                                <path d="M307.839,20.083 C159.892,-5.664 40.34,37.264 2.998,132.083 C-21.317,193.826 112.611,249.861 155.419,268.083 C175.225,276.514 246.649,306.835 321.696,252.083 C401.287,194.016 487.298,228.252 515.685,156.083 C535.217,106.427 389.409,34.279 307.839,20.083 L307.839,20.083 Z" id="shallow" fill-opacity="0.5" fill="#A2DCF9"></path>
                                <polygon id="Shape" fill-opacity="0.25" fill="#706C64" points="397.906 128.083 404.834 156.083 224.701 268.083 58.424 164.083 65.352 136.083 224.701 228.106 397.906 128.083"></polygon>
                                <g id="rock" transform="translate(418.000000, 138.000000)">
                                    <polygon id="Shape" fill-opacity="0.25" fill="#706C64" points="4.563 4.319 0.691 26.083 14.547 34.083 28.403 26.083 18.42 4.319 11.492 8.319 4.563 4.319"></polygon>
                                    <polygon id="Shape" fill="#D6CAAF" points="4.563 4.319 11.492 0.319 18.42 4.319 11.492 8.319"></polygon>
                                </g>
                                <polygon id="Shape" fill="#D6CAAF" points="72.28 124.106 238.557 28.106 390.978 116.106 224.701 212.106 72.28 124.106"></polygon>
                                <g id="odin.2e..-low" transform="translate(134.000000, 64.000000)">
                                    <polygon id="Shape" fill="#D6CAAF" points="88.19 77.579 69.041 57.55 100.126 39.601 134.819 50.657 88.19 77.579 88.19 77.579"></polygon>
                                    <path d="M103.42,47.932 C104.632,47.234 106.752,47.32 108.154,48.13 C109.553,48.937 109.705,50.162 108.492,50.861 C107.279,51.562 105.16,51.473 103.76,50.666 C102.359,49.857 102.207,48.633 103.42,47.932 L103.42,47.932 Z" id="Shape" fill="#BAA67E"></path>
                                    <path d="M87.604,55.582 C87.192,55.343 86.684,55.343 86.274,55.582 C85.684,55.923 84.759,56.456 83.731,57.051 C82.468,57.777 81.692,59.125 81.692,60.583 C81.692,62.038 82.468,63.386 83.731,64.115 C84.206,64.388 84.653,64.648 85.048,64.874 C85.998,65.425 87.172,65.425 88.124,64.874 C88.124,64.874 88.127,64.874 88.127,64.872 C89.732,63.945 90.721,62.234 90.721,60.379 C90.721,58.524 89.732,56.812 88.127,55.883 C87.931,55.773 87.756,55.671 87.604,55.582 L87.604,55.582 Z" id="Shape" fill="#BAA67E"></path>
                                    <polygon id="Shape" fill="#BAA67E" points="89.947 24.753 57.658 33.032 43.317 51.675 70.239 67.217 80.527 69.567 69.037 57.55 93.553 53.755 100.122 39.601 120.939 46.236 116.866 40.295 89.947 24.753 89.947 24.753"></polygon>
                                    <g id="right.2e..-wing" transform="translate(72.000000, 0.000000)" fill="#BAA67E">
                                        <polygon id="bottom" points="34.696 25.447 35.898 35.115 26.924 29.934 27.664 19.145 34.696 25.447"></polygon>
                                        <polygon id="middle" points="27.666 19.145 26.927 29.934 17.953 24.753 20.637 12.842 27.666 19.145"></polygon>
                                        <polygon id="top" points="0.005 14.391 6.574 0.237 20.637 12.842 17.953 24.753"></polygon>
                                    </g>
                                    <g id="left.2e..-wing" transform="translate(0.000000, 41.000000)" fill="#BAA67E">
                                        <polygon id="bottom1" points="44.517 20.342 61.263 21.036 52.288 15.855 33.602 16.283 44.517 20.342"></polygon>
                                        <polygon id="middle1" points="33.604 16.283 52.29 15.855 43.317 10.675 22.687 12.224 33.604 16.283"></polygon>
                                        <polygon id="top1" points="25.382 0.313 0.864 4.105 22.698 12.224 43.328 10.675 25.382 0.313 25.382 0.313"></polygon>
                                    </g>
                                    <polygon id="Shape" fill="#BAA67E" points="102.53 58.938 127.048 55.144 116.871 40.295 150.01 52.25 160.144 67.106 164.577 68.708 163.253 77.342 165.755 78.39 159.962 92.095 136.223 95.438 134.409 93.996 119.455 94.759 116.83 92.338 90.947 86.35 70.243 67.217 95.961 73.092 102.53 58.938"></polygon>
                                    <path d="M111.599,60.956 L106.158,64.097 C106.158,64.097 107.487,64.863 108.824,65.636 C110.505,66.607 112.579,66.607 114.261,65.636 C114.263,65.636 114.263,65.633 114.265,65.633 C114.825,65.31 115.17,64.711 115.17,64.065 C115.17,63.416 114.825,62.819 114.265,62.496 C112.927,61.724 111.599,60.956 111.599,60.956 L111.599,60.956 Z" id="mouth" fill="#D6CAAF"></path>
                                </g>
                                <g id="tree12" transform="translate(252.000000, 8.000000)">
                                    <polygon id="Shape" fill="#755E50" points="21.218 64.094 28.146 60.094 28.146 44.094 21.218 48.094 14.29 44.094 14.29 60.094"></polygon>
                                    <polygon id="Shape" fill="#518C27" points="21.218 48.094 42.003 36.094 42.003 12.094 21.218 24.117"></polygon>
                                    <polygon id="Shape" fill="#76C429" points="0.433 12.094 0.453 36.106 21.218 48.094 21.218 24.094 0.433 12.094"></polygon>
                                    <polygon id="Shape" fill="#CCED3B" points="42.022 12.106 21.218 0.094 0.433 12.094 21.218 24.117"></polygon>
                                </g>
                                <g id="tree121" transform="translate(114.000000, 71.000000)">
                                    <polygon id="Shape" fill="#755E50" points="20.854 64.956 27.782 60.956 27.782 44.956 20.854 48.956 13.926 44.956 13.926 60.956"></polygon>
                                    <polygon id="Shape" fill="#518C27" points="20.854 48.956 41.638 36.956 41.638 12.956 20.854 24.979"></polygon>
                                    <polygon id="Shape" fill="#76C429" points="0.069 12.956 0.089 36.968 20.854 48.956 20.854 24.956 0.069 12.956"></polygon>
                                    <polygon id="Shape" fill="#CCED3B" points="41.658 12.968 20.854 0.956 0.069 12.956 20.854 24.979"></polygon>
                                </g>
                                <g id="tree122" transform="translate(196.000000, 0.000000)">
                                    <polygon id="Shape" fill="#755E50" points="21.773 64.083 28.701 60.083 28.701 44.083 21.773 48.083 14.845 44.083 14.845 60.083"></polygon>
                                    <polygon id="Shape" fill="#518C27" points="21.773 48.083 42.557 36.083 42.557 12.083 21.773 24.106"></polygon>
                                    <polygon id="Shape" fill="#76C429" points="0.988 12.083 1.008 36.094 21.773 48.083 21.773 24.083 0.988 12.083"></polygon>
                                    <polygon id="Shape" fill="#CCED3B" points="42.577 12.094 21.773 0.083 0.988 12.083 21.773 24.106"></polygon>
                                </g>
                            </g>
                            <g id="Group" stroke-width="1" fill="none" transform="translate(859.000000, 398.000000)">
                                <g id="rock1" transform="translate(195.000000, 32.000000)">
                                    <polygon id="Shape" fill-opacity="0.15" fill="#706C64" points="3.55 4 0.086 10 10.478 16 20.871 10 17.406 4 10.478 8"></polygon>
                                    <polygon id="Shape" fill="#D6CAAF" points="3.55 4 10.478 0 17.406 4 10.478 8"></polygon>
                                </g>
                                <g id="rock2" transform="translate(101.000000, 138.000000)">
                                    <polygon id="Shape" fill-opacity="0.15" fill="#706C64" points="4.02 4 0.556 10 10.948 16 21.341 10 17.877 4 10.948 8"></polygon>
                                    <polygon id="Shape" fill="#D6CAAF" points="4.02 4 10.948 0 17.877 4 10.948 8"></polygon>
                                </g>
                                <g id="rock3" transform="translate(145.000000, 91.000000)">
                                    <polygon id="Shape" fill-opacity="0.15" fill="#706C64" points="3.61 4.169 0.146 10.169 10.538 16.169 20.931 10.169 17.467 4.169 10.538 8.169"></polygon>
                                    <polygon id="Shape" fill="#D6CAAF" points="3.61 4.169 10.538 0.169 17.467 4.169 10.538 8.169"></polygon>
                                </g>
                                <g id="rock4" transform="translate(136.000000, 134.000000)">
                                    <polygon id="Shape" fill-opacity="0.15" fill="#706C64" points="3.661 4 0.197 10 10.589 16 20.982 10 17.518 4 10.589 8"></polygon>
                                    <polygon id="Shape" fill="#D6CAAF" points="3.661 4 10.589 0 17.518 4 10.589 8"></polygon>
                                </g>
                                <path d="M7.758,96.739 C3.804,98.502 1.173,102.333 0.948,106.656 C0.723,110.979 2.941,115.064 6.69,117.228 C13.628,121.235 21.531,125.797 28.822,130.007 C42.933,138.154 60.664,136.418 72.928,125.69 C87.198,113.218 106.107,98.245 118.877,94 C142.487,86.152 159.962,79.329 172.775,73.716 C179.648,70.702 184.242,64.079 184.656,56.585 C185.07,49.092 181.234,42.002 174.735,38.25 C174.637,38.193 174.538,38.136 174.44,38.079 C152.898,25.642 125.824,28.326 107.143,44.75 C96.218,54.464 83.979,63.873 73.843,68 C55.506,75.466 27.008,88.103 7.758,96.739 L7.758,96.739 Z" id="Shape" fill="#4EA9D6"></path>
                                <polygon id="Shape" fill="#C59558" points="107.85 55.972 130.294 30.056 147.126 39.775 135.904 72.169"></polygon>
                                <polygon id="Shape" fill="#7B5000" points="130.294 36.535 113.461 59.211 130.294 68.93 141.515 43.014"></polygon>
                                <polygon id="Shape" fill="#592A00" points="119.072 62.451 135.904 39.775 143.74 44.299 133.316 70.675"></polygon>
                                <polygon id="Shape" fill="#C59558" points="130.294 68.93 124.683 65.69 62.963 49.493 68.647 55 124.683 72.169"></polygon>
                                <polygon id="Shape" fill="#C59558" points="87.7 60 84.236 74 87.7 72 91.164 58"></polygon>
                                <polygon id="Shape" fill="#BF6D40" points="84.236 78 84.236 74 87.7 72 91.164 58 94.628 60 91.164 74 84.236 78"></polygon>
                                <polygon id="Shape" fill="#C59558" points="85.407 94.845 79.895 91.663 79.796 85.127 62.963 68.93 57.352 72.169 79.895 98.027 85.407 94.845"></polygon>
                                <polygon id="Shape" fill="#706C64" points="51.741 68.93 74.185 94.845 79.895 98.027 57.352 72.169 51.741 68.93"></polygon>
                                <polygon id="Shape" fill="#A68A5E" points="170.84 4 163.961 55.972 135.906 72.169 147.128 39.775"></polygon>
                                <polygon id="Shape" fill="#C59558" points="150.05 60 167.37 50 170.834 44 150.05 56 150.05 60"></polygon>
                                <polygon id="Shape" fill="#BF6D40" points="146.59 58 150.055 60 150.055 56 146.59 54"></polygon>
                                <polygon id="Shape" fill="#BF6D40" points="62.963 94.845 34.909 98.085 6.854 81.887 46.131 85.127 62.963 94.845"></polygon>
                                <polyline id="Shape" fill="#C59558" points="46.131 124 34.909 98.085 6.854 81.887 17.644 107.554 46.131 124"></polyline>
                                <polygon id="Shape" fill="#A68A5E" points="79.796 104.563 62.963 94.845 34.909 98.085 46.131 124"></polygon>
                                <polygon id="Shape" fill="#BF6D40" points="130.294 30.056 163.91 0 170.838 4 147.126 39.775"></polygon>
                                <polygon id="Shape" fill="#BF6D40" points="113.461 59.211 63.451 46 62.963 49.493 124.683 65.69"></polygon>
                                <polygon id="Shape" fill="#BF6D40" points="57.352 72.169 62.963 68.93 57.352 65.69 51.741 68.93"></polygon>
                                <polyline id="Shape" fill="#A6784E" points="146.59 54 167.375 42 170.839 44 150.055 56 146.59 54"></polyline>
                            </g>
                            <g id="Group" stroke-width="1" fill="none" transform="translate(1155.000000, 484.000000)">
                                <ellipse id="Oval" fill-opacity="0.2" fill="#706C64" cx="58.9" cy="28.279" rx="31.744" ry="15.501"></ellipse>
                                <ellipse id="Oval" fill-opacity="0.2" fill="#706C64" cx="58.43" cy="32.349" rx="58.136" ry="27.922"></ellipse>
                                <path d="M45.06,28.279 C45.06,28.279 51.317,18.85 58.916,12.279 C66.209,5.971 79.701,0.279 79.701,0.279 L72.772,28.279 L45.06,28.279 Z" id="shark" fill="#D9D9D9"></path>
                            </g>
                        </g>
                    </g>
                </g>
            </g>
        </g>
    </g>
</svg>