<svg width="1110" height="1456" viewBox="0 0 1110 1456" xmlns="http://www.w3.org/2000/svg" xmlns:xlink="http://www.w3.org/1999/xlink"><title>3C913DD3-0346-45A5-A089-7CFC516523F1</title><defs><rect id="b" width="273" height="60" rx="3"/><filter x="-50%" y="-50%" width="200%" height="200%" filterUnits="objectBoundingBox" id="a"><feOffset dy="1" in="SourceAlpha" result="shadowOffsetOuter1"/><feGaussianBlur stdDeviation="2" in="shadowOffsetOuter1" result="shadowBlurOuter1"/><feColorMatrix values="0 0 0 0 0 0 0 0 0 0 0 0 0 0 0 0 0 0 0.5 0" in="shadowBlurOuter1"/></filter><linearGradient x1="-37.162%" y1="-20.658%" x2="137.667%" y2="156.533%" id="c"><stop stop-color="#CE973D" offset="0%"/><stop stop-color="#D59E6F" offset="33.966%"/><stop stop-color="#F89D8B" offset="100%"/></linearGradient><linearGradient x1="-37.162%" y1="-20.658%" x2="137.667%" y2="156.533%" id="d"><stop stop-color="#CE973D" offset="0%"/><stop stop-color="#D59E6F" offset="47.856%"/><stop stop-color="#F89D8B" offset="100%"/></linearGradient></defs><g fill="none" fill-rule="evenodd"><path fill="#FFF" d="M0 583h350v354H0zM0 199h350v354H0zM380 583h350v354H380zM380 199h350v354H380zM760 583h350v354H760zM760 199h350v354H760zM0 967h1110v354H0z"/><text font-family="Open Sans-Bold, Open Sans" font-size="24" font-weight="bold" letter-spacing=".288" fill="#4A4A4A" transform="translate(0 -7)"><tspan x="181" y="26">Choose to learn from a path:</tspan></text><text font-family="Open Sans-Bold, Open Sans" font-size="24" font-weight="bold" letter-spacing=".288" fill="#4A4A4A" transform="translate(0 -7)"><tspan x="266.477" y="99">Or selectively learn from the following courses:</tspan></text><text font-family="Open Sans-Bold, Open Sans" font-size="24" font-weight="bold" letter-spacing=".288" transform="translate(0 -7)"><tspan x="546.138" y="26" fill="#A6824A">Full-Stack</tspan> <tspan x="665.689" y="26" fill="#4A4A4A">, </tspan> <tspan x="679.461" y="26" fill="#EC761F">Front-End</tspan> <tspan x="798.818" y="26" fill="#4A4A4A">, </tspan> <tspan x="812.59" y="26" fill="#8E8E4C">Back-End</tspan></text><text font-family="Open Sans-Bold, Open Sans" font-size="18" font-weight="bold" letter-spacing=".216" fill="#4A4A4A" transform="translate(0 -7)"><tspan x="401.374" y="1263">Getting Hired as a Web Developer</tspan></text><text font-family="Open Sans-Bold, Open Sans" font-size="18" font-weight="bold" letter-spacing=".216" fill="#4A4A4A" transform="translate(0 -7)"><tspan x="118.044" y="495">HTML + CSS3</tspan></text><text font-family="Open Sans-Bold, Open Sans" font-size="18" font-weight="bold" letter-spacing=".216" fill="#4A4A4A" transform="translate(0 -7)"><tspan x="127.191" y="879">Databases</tspan></text><text font-family="Open Sans-Bold, Open Sans" font-size="18" font-weight="bold" letter-spacing=".216" fill="#4A4A4A" transform="translate(0 -7)"><tspan x="532.577" y="879">Ruby</tspan></text><text font-family="Open Sans-Bold, Open Sans" font-size="18" font-weight="bold" letter-spacing=".216" fill="#4A4A4A" transform="translate(0 -7)"><tspan x="873.597" y="879">Ruby on Rails</tspan></text><text font-family="Open Sans, Open Sans" font-size="13" letter-spacing=".156" fill-opacity=".7" fill="#4A4A4A" transform="translate(0 -7)"><tspan x="137.945" y="524">12 LESSONS</tspan></text><text font-family="Open Sans, Open Sans" font-size="13" letter-spacing=".156" fill-opacity=".7" fill="#4A4A4A" transform="translate(0 -7)"><tspan x="137.445" y="908">12 LESSONS</tspan></text><text font-family="Open Sans, Open Sans" font-size="13" letter-spacing=".156" fill-opacity=".7" fill="#4A4A4A" transform="translate(0 -7)"><tspan x="517.945" y="908">12 LESSONS</tspan></text><text font-family="Open Sans, Open Sans" font-size="13" letter-spacing=".156" fill-opacity=".7" fill="#4A4A4A" transform="translate(0 -7)"><tspan x="517.445" y="1292">10 LESSONS</tspan></text><text font-family="Open Sans, Open Sans" font-size="13" letter-spacing=".156" fill-opacity=".7" fill="#4A4A4A" transform="translate(0 -7)"><tspan x="897.445" y="908">12 LESSONS</tspan></text><text font-family="Open Sans, Open Sans" font-size="13" letter-spacing=".156" fill-opacity=".7" fill="#4A4A4A" transform="translate(0 -7)"><tspan x="517.945" y="524">13 LESSONS</tspan></text><text font-family="Open Sans, Open Sans" font-size="13" letter-spacing=".156" fill-opacity=".7" fill="#4A4A4A" transform="translate(0 -7)"><tspan x="897.945" y="524">13 LESSONS</tspan></text><text font-family="Open Sans-Bold, Open Sans" font-size="18" font-weight="bold" letter-spacing=".216" fill="#4A4A4A" transform="translate(0 -7)"><tspan x="509.429" y="495">JavaScript</tspan></text><text font-family="Open Sans-Bold, Open Sans" font-size="18" font-weight="bold" letter-spacing=".216" fill="#4A4A4A" transform="translate(0 -7)"><tspan x="922.006" y="495">Git</tspan></text><g transform="translate(419 1391)"><use fill="#000" filter="url(#a)" xlink:href="#b"/><use fill="#CC9543" xlink:href="#b"/></g><text font-family="Open Sans-Bold, Open Sans" font-size="18" font-weight="bold" letter-spacing=".216" fill="#FFF" transform="translate(419 1391)"><tspan x="28.077" y="37">View curriculum details</tspan></text><g transform="translate(455 1007)"><circle stroke="url(#c)" stroke-width="5" cx="100" cy="100" r="100"/><path fill="url(#c)" transform="rotate(-51.575 39.576 51.76)" d="M41.296 50.451l.028 2.364.114.342.057.227-.17 4.5-.03.172-.966-2.108-.454.057-.028-.883-1.678-2.763-.511-.826.369-.57.654-1.253 1.108-1.823 2.161-3.048-.029-.399.995-.854.654-1.11-.739-.684-.313-.228-1.08-.627-1.336 1.852.057.313-1.506 1.823-.285.769-2.16 3.304-.54 1.025-.143.2-.426.285-.057 2.107 1.365 2.08.853 1.168.653 1.252.028.03 1.393 2.506.995 1.51.711 1.423 2.7-.285-.028-1.281-.255-.4.255-.17.142-7.064-.085-.17.34-2.023-.34-.855-2.473.115z"/><path fill="url(#c)" transform="rotate(-41.928 48.612 42.239)" d="M52.009 34.42l.057-1.595-.03-1.11-2.813.028-1.109.227-.398-.227h-1.62l-1.336.17.142 2.023.313.37-.313.484.029 1.453-.029 2.221v2.108l-.085 1.054.227 2.82-.113.228.028 1.538v.655l.256.342-.34.74-.03 1.31.03.314-.172 1.937.142 1.168 2.133.028.227-.142h.995l1.62.17 1.876.03.654-.285.114-1.055L52.52 50l-1.42-.028-.711.228-2.275.028-.227-.056-.256-.058-.056-2.763-.03-.056.086-.257-.17-.826.114-2.934h.454l1.79.057 1.394.058.057-1.169.17-.854-.369-.712-1.45.143-1.109.056-1.051-.056-.057-1.111-.285-.229.313-.512.143-.854v-2.82l.056-.713v-.313h.256l1.564.057.454-.085.086-.03.682.23h1.336z"/><path d="M59.244 24.951l-1.308.086c-.398 0-.767 0-1.194-.029-.227 0-.483.2-.653.2l-.54-.228-2.757-.142-.086 2.335.341.342 1.734-.057c.085 0 .256-.028.455-.086l.142-.142.626.086.17 1.167-.114 1.824.17 1.338-.141 5.81-.143 4.016.257.285-.427 1.795v2.193l1.507.228.796-.143.824-.455-.227-2.023v-5.354l-.342-.542.03-.028.255-1.709-.029-2.193v-.484c0-.2-.028-.456-.028-.684-.029-.171-.029-.883-.029-1.14l.057-2.107-.113-.627.17-1.196h.881l.853.057.285.086h1.279l.085-1.34-.17-1.196-2.616.057z" fill="url(#c)" transform="rotate(-33.751 57.368 35.405)"/><path d="M69.166 19.32l-1.307.084c-.398 0-.767 0-1.194-.028-.228 0-.484.2-.654.2l-.54-.228-2.757-.143-.086 2.336.341.341 1.735-.056c.084 0 .255-.03.454-.086l.143-.142.625.085.17 1.168-.114 1.823.171 1.339-.142 5.81-.142 4.016.256.285-.426 1.795v2.193l1.506.228.796-.142.824-.456-.227-2.023v-5.355l-.342-.54.03-.029.255-1.709-.028-2.193v-.484c0-.2-.03-.456-.03-.684-.028-.171-.028-.883-.028-1.14l.058-2.107-.114-.627.17-1.196h.881l.854.057.284.085h1.278l.086-1.338-.17-1.197-2.616.058z" fill="url(#c)" transform="rotate(-25.305 67.29 29.772)"/><path fill="url(#c)" transform="rotate(-18.135 76.241 26.2)" d="M75.161 24.263l-.085 1.566-.086.883v6.352l.341.485-.34.569-.399 2.535 1.308.028.597.029 1.25-.4.03-1.053-.058-.541-.056-.427v-7.89l-.314-.2.256-.598-.057-.712-.113-1.11.085-1.453.085-3.731.142-.712.143-2.08-1.848-.114-1.336.085.142 1.425.256.142-.227.513.085 5.696z"/><path fill="url(#c)" transform="rotate(-9.464 87.528 23.305)" d="M92.232 31.366v-.911l-.199-6.238-.312-.94.227-1.196.284-7.007.058-1.937-1.166-.2-1.649.03v2.277l.285.4-.285.882v2.45l-.938-1.538-.227-.114-.71-1.14-2.56-3.532-2.245.627v1.482l.114 2.961.114 1.625-.114 5.924.255.57-.227.825-.17 4.045v.484l.085.257-.2 2.278 1.223.228 1.677-.057.057-1.823-.085-.399.028-2.962-.255-1.082.142-1.026.057-6.494-.342-.37-.028-.057.398-1.025v-1.539l.739 1.026 1.165 1.624.825.997.398.626.398.427.455.77.028 2.962.085.54-.085.143-.028 2.735.028 2.705-.028 2.222.966.057 1.563-.028.37-.969-.17-1.595z"/><path fill="url(#c)" transform="rotate(.363 100.85 22.304)" d="M102.57 20.994l.028 2.364.114.342.057.227-.171 4.501-.028.17-.967-2.107-.454.057-.03-.883-1.676-2.763-.512-.826.37-.57.654-1.252 1.108-1.824 2.16-3.047-.028-.399.995-.855.654-1.11-.74-.684-.312-.228-1.08-.626-1.336 1.85.057.314-1.507 1.823-.284.769-2.16 3.304-.541 1.026-.142.2-.426.284-.057 2.108 1.364 2.08.853 1.166.654 1.254.028.028 1.393 2.507.995 1.51.71 1.424 2.702-.285-.03-1.282-.255-.399.256-.17.142-7.065-.085-.17.34-2.023-.34-.854-2.473.114z"/><path fill="url(#c)" transform="rotate(15.958 121.681 25.286)" d="M116.934 31.04l.057 1.794.398.427-.455.542-.086 1.908 1.791.171 1.166-.057.028-1.053-.085-1.282-.17-1.51.028-.085.142-4.957 2.218-.94h.028l1.649-.37-.029.513.085.399-.056 4.386.426.456-.284.256-.2 3.19.37.997h1.649l1.052-.056-.057-1.567-.2-.712-.056-3.646-.057-5.099-.056-.57-.086-1.28.142-2.678-.255-.827.283-.37.03-1.082v.028l.17-1.623.085-1.424-1.62-.057-1.052-.029-.427.826.143 1.14.056 2.563.086 2.592-.114.769-.312.142-.54.257-1.166.512-.256.314-.455-.171-1.194.427-.057.029-.256-2.764.114-1.88-.313-.255.342-.542.142-1.737.113-2.05-2.444-.315-.682.456.199 1.767-.086.569.086 1.88.199 1.766-.114 2.791.199 3.219-.256 3.902z"/><path fill="url(#c)" transform="rotate(24.606 132.556 29.375)" d="M131.476 27.438l-.085 1.566-.085.884v6.35l.34.485-.34.57-.398 2.535 1.307.029.597.028 1.25-.399.03-1.054-.058-.54-.056-.428v-7.89l-.313-.2.256-.597-.058-.712-.113-1.112.085-1.452.086-3.732.141-.712.143-2.08-1.848-.113-1.336.086.142 1.424.256.142-.227.513.085 5.697.199.712z"/><path d="M140.915 36.72l1.136 2.306.257.655 1.05 1.994.342.171-.029.484.995 2.28.683 1.11 2.302-1.282.03-.826-.94-.997-.511-1.082v.028l-.398-.826-.17-.085v-.37l-1.137-1.937c-.2-.285-.37-.427-.597-.684v-.484c-.171-.342-.512-.826-.711-1.225l.796-1.082.483-.598.91-1.083 1.307-1.595.2-1.709-1.365-1.253c-.029 0-.484.142-.512.114l-.17-.712-4.52-3.931-2.246.911.113 2.45.143 5.44-.227.57.056 1.481.114 3.332v1.111l.256.37-.426 1.111-.171 4.53 1.876.17 1.137-.455-.028-2.365-.086-.255-.085-2.85-.028-3.104.17.171zm-.115-2.678l-.113-2.536-.057-.313-.057-.17-.114-.514.228-.54v-.285l.057-2.194 2.615 2.592.199.143.569.712-.313.399a47.449 47.449 0 0 1-1.45 1.88l-1.421 1.766-.2.113.057-1.053z" fill="url(#c)" transform="rotate(33.235 142.82 34.91)"/><path fill="url(#c)" transform="rotate(42.313 152.476 42.59)" d="M155.873 34.771l.057-1.595-.028-1.11-2.815.028-1.108.228-.398-.228h-1.62l-1.336.17.142 2.023.312.37-.312.485.028 1.453-.028 2.221v2.108l-.086 1.053.227 2.82-.113.228.029 1.538v.655l.255.342-.34.741-.03 1.31.03.313-.171 1.938.141 1.167 2.133.029.227-.143h.995l1.62.171 1.876.028.654-.284.114-1.054.057-1.425-1.422-.028-.71.228-2.274.029-.228-.058-.256-.056-.056-2.763-.028-.057.084-.256-.17-.827.114-2.933h.454l1.791.057 1.393.056.057-1.168.17-.854-.369-.712-1.45.142-1.109.058-1.05-.058-.058-1.11-.284-.228.312-.513.143-.854v-2.82l.056-.712v-.313h.256l1.564.056.454-.085.086-.029.682.228h1.336z"/><path d="M161.392 59.697l.995-2.022 2.928-4.5.511-.855-.028-2.08-.512-.654.029.056-2.16-2.877-.74-1.31-.995-.997-.312-.94-1.763-2.42-1.506.455-1.223.37.029 1.054.085 1.481.284.37-.284.541.028 7.463.171 1.111-.17 6.38v-.028l-.058 1.908 1.848.257.938.256 1.905-3.02zm-2.104-10.653l-.085-4.13.17.2 2.815 4.528.568.456.114.684.512.768-.512.827-.938 1.566-1.194 2.307.227.257-.511.256-1.25 2.022-.03.057.03-1.538.113-5.64-.455-1.338.426-1.282z" fill="url(#c)" transform="rotate(51.703 161.221 51.907)"/><circle stroke="url(#c)" stroke-width="3" cx="100" cy="100" r="56.495"/><path d="M135 89.174A6.175 6.175 0 0 0 128.826 83H71.174A6.175 6.175 0 0 0 65 89.174v30.652A6.175 6.175 0 0 0 71.174 126h57.652a6.175 6.175 0 0 0 6.174-6.174V89.174z" stroke="url(#c)" stroke-width="3"/><path d="M70 115.5v1a4 4 0 0 0 4 4h1M130 115.5v1a4 4 0 0 1-4 4h-1" stroke="url(#c)" stroke-width="2"/><path d="M85 82v-.001A17.022 17.022 0 0 1 99.433 74h1.134A17.022 17.022 0 0 1 115 81.999V82M71 89l29 16.5L129 89" stroke="url(#c)" stroke-width="3"/><path d="M174.778 64.893C179.795 75.55 182.6 87.45 182.6 100c0 45.588-37.012 82.6-82.6 82.6-45.588 0-82.6-37.012-82.6-82.6 0-12.408 2.742-24.181 7.653-34.746" stroke="url(#c)" stroke-width="2"/><path d="M31.431 69.544C27.286 78.853 24.982 89.16 24.982 100c0 41.404 33.614 75.018 75.018 75.018s75.018-33.614 75.018-75.018c0-10.982-2.365-21.417-6.613-30.821" stroke="url(#c)" stroke-width="2"/></g><g transform="translate(835 623)"><circle stroke="url(#c)" stroke-width="5" cx="100" cy="100" r="100"/><path d="M38.714 52.167l1.137 2.307.256.655 1.052 1.993.34.171-.027.485.995 2.278.682 1.111 2.302-1.282.029-.825-.938-.997-.512-1.083v.028l-.398-.825-.17-.086v-.37l-1.138-1.937c-.199-.285-.37-.427-.597-.684v-.484c-.17-.341-.512-.826-.71-1.225l.795-1.082.484-.598.91-1.083 1.307-1.595.199-1.709-1.364-1.253c-.03 0-.483.143-.512.114l-.17-.712-4.52-3.93-2.246.911.113 2.45.142 5.44-.227.57.057 1.48.114 3.333v1.111l.255.37-.426 1.111-.17 4.529 1.876.171 1.137-.456-.029-2.364-.084-.256-.086-2.849-.029-3.104.17.17zm-.114-2.678l-.113-2.535-.057-.314-.057-.17-.113-.512.227-.542v-.285l.056-2.193 2.616 2.592.199.143.568.712-.313.398a46.74 46.74 0 0 1-1.449 1.88l-1.422 1.766-.199.114.057-1.054z" fill="url(#c)" transform="rotate(-50.292 40.618 50.358)"/><path fill="url(#c)" transform="rotate(-40.263 50.39 40.834)" d="M45.813 46.203l.285.313-.398.513-.086 1.339.028 1.424 1.706 1.481 1.79.029.91-.485 2.161-1.11.057.199.227 1.538 2.758-.456-.398-2.221-.17-3.333.057-6.323-.143-.826-.284-.285.284-.484.028-.399.057-1.567.2-1.85-.285-.315.313-.17.085-1.539-.17-1.395-1.308-.029-1.422.029-.057 2.022.115 3.59v2.363l.17 3.475-.086 3.617-.113 1.852-2.331.997-.938.341-.228-.028-.312-.257-.029-.427-.199-3.332.2-3.361-.058-2.136-.028-1.054-.028-.969.199-1.082-.285-.627-.028-.512.284-1.026.085-.91.03-2.536-2.56-.057-.37 1.054.172 4.585.141.883-.227.599-.028 2.022.199 3.105.028 3.731z"/><path d="M62.565 41.565l.995-.797.824-1.026 1.166-.826 1.108-1.139.028-1.31-.028-.598-2.985-2.849-.312-.285-.427-.37-.2-.17 1.423-1.653 1.676-1.823.2-1.68-.114-.57-1.933-1.538-3.753-3.332-2.387.683.057 1.624.085.427.284.285-.313.854.03 3.275.113 3.049-.171 1.31v4.272l.114 1.339-.228 3.874 1.564.285 1.194.37 1.99-1.68zm-1.763-8.317l1.28 1.14.682.712.398.37 1.023 1.281-1.08 1.196-.341.229-.768.655-1.45 1.538.029-1.738-.284-.285.255-.227v-5.042l.256.17zm-.426-4.358l.085-1.48-.029-2.507 1.934 1.709.227.028.142.341.881.798h-.028l-.995 1.082-.114.712-.426.058-1.393 1.51-.228.17-.056-2.42z" fill="url(#c)" transform="rotate(-29.522 62.252 32.422)"/><path fill="url(#c)" transform="rotate(-20.787 72.866 27.35)" d="M73.377 37.93l.825-.57-.199-1.85.028-1.226-.113-.484.113-2.05-.341-.285.313-.855-.029-.826.085-.313-.028-.826.824-2.308 1.109-3.246.427-1.254.426-.883.2-.399-.314-.256.654-.285.796-2.05-.881-.627-.597-.2-1.279-.37-.256 1.396-.341.826-.483 1.937-.427.94-.427 1.68-.511 1.794-.114.143-.312-1.025-.313-.456.086-.228-.228-1.026-.54-1.11-.597-2.136-.227-.684v-.484l-.57-1.538-.938.228-1.563.484-.057.911.654 1.168.54.228-.17.911.483 1.31.398.97v-.03l1.108 2.82.597 1.738.285 1.367-.057 1.225.114 3.674.284.37-.341.684-.2 1.396-.056 1.623 2.16.058z"/><path d="M91.268 12.341l-.256.029H89.96l-.057.199-.17.855-.113.17-1.536 3.846.143.313-.512.37-1.535 3.731-.228.143.057 1.795.682 1.452 1.024 2.422.852 1.765h.313l-.085.484.995 2.479.029.94 2.586.028.057-.313.341-.912 1.535-3.646.654-1.367.028-.455.228-.285 1.393-2.82.085-1.567-.967-2.107-.767-1.71h-.284l-.143-.769-1.45-3.56-.568-1.567-1.28.057zm.057 17.375l-1.251-3.276-.569-1.167-.568-.399.285-.342-.257-.826-.37-.94-.028-.342.938-2.449-.199-.456.398-.114 1.564-4.13.17.541.654 1.738.512.313-.256.342 1.109 2.877.341.968.227.713-1.392 3.417.028.513h.028l-.34.341-.91 2.991-.114-.313z" fill="url(#c)" transform="rotate(-6.621 91.34 22.823)"/><path fill="url(#c)" transform="rotate(3.949 105.752 22.432)" d="M110.456 30.493v-.912l-.199-6.238-.312-.94.227-1.196.284-7.007.058-1.937-1.166-.2-1.648.03v2.278l.283.399-.283.883v2.45l-.939-1.539-.227-.114-.71-1.139-2.56-3.532-2.245.627v1.48l.114 2.963.113 1.623-.113 5.925.255.57-.227.826-.17 4.044v.485l.085.256-.2 2.28 1.223.227 1.677-.058.057-1.822-.085-.4.028-2.962-.255-1.081.142-1.026.057-6.494-.342-.37-.028-.057.398-1.026v-1.538l.739 1.025 1.165 1.624.825.997.398.626.398.428.455.769.028 2.962.085.541-.085.143-.028 2.734.028 2.706-.028 2.221.966.058 1.563-.029.37-.968-.17-1.595z"/><path d="M125.402 28.869l1.136 2.307.257.654 1.052 1.994.34.171-.028.485.995 2.279.683 1.11 2.302-1.282.028-.825-.937-.997-.513-1.083v.028l-.398-.825-.17-.086v-.37l-1.137-1.937c-.2-.285-.37-.427-.597-.684v-.484c-.17-.341-.512-.826-.71-1.225l.795-1.082.484-.598.91-1.083 1.307-1.595.199-1.709-1.364-1.252c-.03 0-.484.142-.513.113l-.17-.712-4.52-3.93-2.245.91.113 2.45.142 5.44-.227.57.057 1.482.114 3.332v1.11l.255.371-.426 1.11-.17 4.53 1.875.17 1.138-.455-.03-2.364-.084-.256-.085-2.849-.029-3.104.17.17zm-.114-2.678l-.113-2.535-.058-.314-.056-.17-.114-.513.228-.541v-.285l.056-2.193 2.616 2.592.199.143.568.712-.313.398a46.87 46.87 0 0 1-1.45 1.88l-1.421 1.766-.199.114.057-1.054z" fill="url(#c)" transform="rotate(20.346 127.306 27.06)"/><path d="M140.637 37.262l.227.94.256.17-.227.286.113.797.37 3.589.483.256h.37l2.103-.684-.313-1.224-.426-.456.17-.228-.283-1.794-.711-2.649v-.399l-1.365-6.864-.34-.257.198-.513-.91-4.357-.113-.285-.085-.228.028-.997-.483-.228-2.33.114-.285 1.794-.256 1.197-.2 1.14.313.426-.511.599-.853 3.816v.513l-.17.598-.086.541-.569 3.504.03.57-.314.313-.284 1.794-.768 3.475.995.627 1.763.171.313-1.909-.2-.798.256-.313.313-2.022.568-.228.257-.113 1.904-.456.569-.4h.028l.398-.057.057.229zm-2.616-6.523l-.141-.456.284-.142.568-3.475.427 3.02.114.512.113 1.481.569 3.076-.796.2-1.848.569.028-.2.342-1.85-.03.028.37-2.763z" fill="url(#c)" transform="rotate(29.912 138.874 32.733)"/><path fill="url(#c)" transform="rotate(37.912 147.909 38.716)" d="M146.829 36.78l-.086 1.566-.085.883v6.352l.34.484-.34.57-.398 2.535 1.307.028.597.028 1.252-.398.028-1.054-.057-.542-.057-.427v-7.89l-.312-.199.255-.598-.056-.712-.114-1.11.085-1.454.085-3.73.143-.713.141-2.08-1.847-.113-1.336.086.142 1.424.256.142-.228.512.086 5.697.199.713z"/><path fill="url(#c)" transform="rotate(45.341 155.489 45.409)" d="M157.038 53.342l-2.16.056v-.826l-.115-1.993.03-.029-.086-1.965-.057-1.737-.341-.37.313-.485v-1.396l.17-3.133.086-3.19.113-.969.057-1.851-.739-.655-.939.228h-1.477l.199 3.104.454.143-.37.484.058 9.286-.2 4.7.257.712-.37.512.057 1.937 1.279.057 1.251-.228.255.17h1.223l.398-.028 2.16.142.427-.54.114-1.795-.086-.598-1.335.057-.626.2z"/><path d="M161.025 57.891l.057.314-.796.37c-.17.285-.312.541-.483.826-.256.399-.455.712-.739 1.111l-.54.484-.427 1.054 2.331 1.453.768-.94.312-.912-.028.114c.085-.171.17-.399.284-.598l1.137-1.538 1.536-1.88 1.023-1.68-.057-2.222-.767-.57-2.644-2.478-.455-.285-.54-.769-.54-.655.852-1.14.058-.199.284-.398 1.62-1.909.256-.512.739-.741.768-1.14-1.678-1.338-.853-.086-.682 1.14c-.028.085.085.227.029.341l-.569.37-.739.998.057.313-1.45 1.68-1.393 1.994.029 1.795 1.364 1.338 2.19 2.023.567.256.967 1.168-1.848 2.848z" fill="url(#c)" transform="rotate(52.259 161.608 52.565)"/><path d="M100.806 198v-40.907M134.275 191.814l-13.991-38.44M163.611 174.554l-26.295-31.336M185.274 148.302l-35.427-20.454M196.651 116.224l-40.285-7.104M196.371 82.189l-40.285 7.103M3.349 83.776l40.285 7.104M3.629 117.811l40.285-7.103M15.533 149.698l35.426-20.453M37.624 175.59l26.295-31.336M67.239 192.366l13.991-38.44" stroke="url(#c)" stroke-width="3"/><circle stroke="url(#c)" stroke-width="3" cx="100" cy="100" r="56.495"/><path stroke="url(#c)" stroke-width="3" d="M70 79h60l15 15-45 45-45-45z"/><path d="M145 94H55M130 79l-15 15-15-15-15 15-15-15M115 94l-15 45-15-45" stroke="url(#c)" stroke-width="2"/></g><g transform="translate(455 623)"><circle stroke="url(#c)" stroke-width="5" cx="100" cy="100" r="100"/><circle stroke="url(#c)" stroke-width="3" cx="100" cy="100" r="56.495"/><path d="M79.323 26.446l1.136 2.308.256.655 1.051 1.994.34.17-.027.485.994 2.278.682 1.111 2.3-1.282.029-.826-.938-.997-.511-1.082v.028l-.398-.826-.17-.085v-.37L82.93 28.07c-.198-.285-.368-.427-.596-.684v-.484c-.17-.342-.511-.826-.71-1.225l.795-1.082.483-.598.91-1.082 1.306-1.595.199-1.71-1.363-1.253c-.03 0-.483.142-.512.114l-.17-.712-4.517-3.931-2.244.912.113 2.45.142 5.44-.227.57.057 1.48.114 3.333v1.111l.255.37-.426 1.111-.17 4.529 1.874.171 1.137-.456-.029-2.364-.085-.256-.085-2.849-.029-3.105.17.171zm-.114-2.677l-.113-2.535-.057-.313-.057-.171-.114-.513.228-.541v-.285l.056-2.193 2.614 2.592.2.142.567.712-.313.4a47.43 47.43 0 0 1-1.448 1.88l-1.42 1.765-.2.114.057-1.054z" fill="url(#c)" transform="rotate(-14.308 81.226 24.638)"/><path fill="url(#c)" transform="rotate(-4.176 94.733 22.695)" d="M90.159 28.065l.284.313-.398.512-.085 1.339.028 1.424 1.705 1.481 1.79.029.908-.484 2.16-1.111.057.2.227 1.537 2.755-.455-.397-2.222-.17-3.333.055-6.323-.141-.826-.284-.285.284-.485.028-.398.057-1.566.199-1.852-.284-.313.312-.171.085-1.538-.17-1.396-1.307-.028-1.42.028-.057 2.022.114 3.59v2.363l.17 3.476-.085 3.617-.114 1.851-2.329.997-.938.342-.227-.028-.312-.257-.028-.427-.2-3.333.2-3.36-.058-2.137-.028-1.054-.028-.968.199-1.083-.284-.626-.03-.513.285-1.025.085-.912.028-2.535-2.556-.057-.37 1.054.171 4.586.142.883-.227.598-.028 2.022.199 3.105.028 3.732z"/><path d="M109.547 32.03l.994-.798.823-1.025 1.165-.826 1.108-1.139.028-1.31-.028-.599-2.983-2.848-.312-.285-.427-.37-.199-.17 1.421-1.653 1.677-1.823.198-1.68-.114-.57-1.931-1.538-3.75-3.333-2.387.684.058 1.624.085.427.284.285-.313.854.029 3.276.113 3.048-.17 1.31v4.272l.113 1.339-.227 3.874 1.563.285 1.193.37 1.989-1.681zm-1.762-8.317l1.279 1.14.681.712.398.37 1.023 1.281-1.08 1.197-.34.228-.768.655-1.449 1.537.029-1.737-.284-.285.255-.227v-5.042l.256.17zm-.426-4.358l.086-1.48-.03-2.507 1.933 1.709.227.028.141.341.881.798h-.028l-.994 1.082-.114.712-.426.058-1.392 1.51-.227.17-.057-2.421z" fill="url(#c)" transform="rotate(6.485 109.234 22.887)"/><path fill="url(#c)" transform="rotate(15.245 120.813 25.042)" d="M121.325 35.624l.824-.57-.199-1.851.028-1.225-.113-.484.113-2.051-.34-.285.312-.854-.029-.827.085-.313-.028-.826.824-2.307 1.108-3.247.426-1.253.426-.883.199-.399-.312-.257.653-.285.795-2.05-.88-.626-.597-.2-1.278-.37-.256 1.395-.34.826-.484 1.938-.426.94-.426 1.68-.511 1.794-.114.142-.312-1.025-.313-.456.086-.228-.228-1.025-.54-1.11-.596-2.137-.227-.684v-.483l-.569-1.539-.937.228-1.562.484-.057.911.653 1.168.54.228-.171.912.483 1.31.398.968v-.028l1.108 2.82.596 1.738.284 1.366-.056 1.226.113 3.674.285.37-.342.683-.199 1.396-.056 1.623 2.159.058z"/><path stroke="url(#c)" stroke-width="3" d="M70 79h60l15 15-45 45-45-45z"/><path d="M145 94H55M130 79l-15 15-15-15-15 15-15-15M115 94l-15 45-15-45" stroke="url(#c)" stroke-width="2"/><path d="M80 165.439l1.244 4.976a5.198 5.198 0 0 0 3.781 3.781L90 175.439l-4.975 1.244a5.196 5.196 0 0 0-3.781 3.781L80 185.439l-1.244-4.975a5.196 5.196 0 0 0-3.781-3.781L70 175.439l4.975-1.243a5.198 5.198 0 0 0 3.781-3.781L80 165.439zM30 50l1.244 4.975a5.194 5.194 0 0 0 3.781 3.781L40 60l-4.975 1.244a5.194 5.194 0 0 0-3.781 3.781L30 70l-1.244-4.975a5.194 5.194 0 0 0-3.781-3.781L20 60l4.975-1.244a5.194 5.194 0 0 0 3.781-3.781L30 50zM177.668 90l1.244 4.975a5.194 5.194 0 0 0 3.781 3.781l4.975 1.244-4.975 1.244a5.194 5.194 0 0 0-3.781 3.781L177.668 110l-1.244-4.975a5.194 5.194 0 0 0-3.781-3.781L167.668 100l4.975-1.244a5.194 5.194 0 0 0 3.781-3.781L177.668 90zM32.5 135l.744 2.975a5.194 5.194 0 0 0 3.781 3.781L40 142.5l-2.975.744a5.194 5.194 0 0 0-3.781 3.781L32.5 150l-.744-2.975a5.194 5.194 0 0 0-3.781-3.781L25 142.5l2.975-.744a5.194 5.194 0 0 0 3.781-3.781L32.5 135zM157.5 147.491l.744 2.975a5.194 5.194 0 0 0 3.781 3.781l2.975.744-2.975.744a5.194 5.194 0 0 0-3.781 3.781l-.744 2.975-.744-2.975a5.194 5.194 0 0 0-3.781-3.781l-2.975-.744 2.975-.744a5.194 5.194 0 0 0 3.781-3.781l.744-2.975zM167.5 60l.744 2.975a5.194 5.194 0 0 0 3.781 3.781L175 67.5l-2.975.744a5.194 5.194 0 0 0-3.781 3.781L167.5 75l-.744-2.975a5.194 5.194 0 0 0-3.781-3.781L160 67.5l2.975-.744a5.194 5.194 0 0 0 3.781-3.781L167.5 60z" fill="url(#c)"/></g><g transform="translate(75 623)"><circle stroke="url(#c)" stroke-width="5" cx="100" cy="100" r="100"/><path d="M49.206 51.141a70.465 70.465 0 0 0-11.37 15.649l-16.662.259a85.472 85.472 0 0 0-4.313 13.276l13.327 10.003a70.485 70.485 0 0 0 0 19.344l-13.327 10.003a85.472 85.472 0 0 0 4.313 13.276l16.662.259a70.465 70.465 0 0 0 11.37 15.649l-4.902 15.926a85.326 85.326 0 0 0 11.293 8.205l13.631-9.584a70.452 70.452 0 0 0 18.397 5.978l5.395 15.766c4.646.381 9.314.381 13.96 0l5.395-15.766a70.452 70.452 0 0 0 18.397-5.978l13.631 9.584a85.326 85.326 0 0 0 11.293-8.205l-4.902-15.926a70.465 70.465 0 0 0 11.37-15.649l16.662-.259a85.472 85.472 0 0 0 4.313-13.276l-13.327-10.003a70.485 70.485 0 0 0 0-19.344l13.327-10.003a85.472 85.472 0 0 0-4.313-13.276l-16.662-.259a70.465 70.465 0 0 0-11.37-15.649" stroke="url(#c)" stroke-width="3"/><path d="M100 93c-22.091 0-40-4.477-40-10s17.909-10 40-10 40 4.477 40 10-17.909 10-40 10zm40 47.5V83v57.5zM140 103c0 5.519-17.923 10-40 10s-40-4.481-40-10M60 123c0 5.519 17.923 10 40 10s40-4.481 40-10M60 83v57.5" stroke="url(#c)" stroke-width="3"/><circle stroke="url(#c)" stroke-width="3" cx="100" cy="100" r="56.495"/><path d="M61.17 40.885l.995-2.022 2.929-4.5.511-.855-.029-2.08-.511-.655.029.057-2.161-2.877-.74-1.31-.995-.997-.312-.94-1.762-2.42-1.507.455-1.223.37.029 1.054.085 1.481.284.37-.284.541.028 7.463.17 1.11-.17 6.381v-.028l-.057 1.908 1.848.257.938.256 1.905-3.02zm-2.104-10.653l-.085-4.13.17.2 2.815 4.528.569.456.113.684.512.768-.512.827-.937 1.566-1.194 2.307.227.257-.512.256-1.251 2.022-.028.057.028-1.538.114-5.64-.455-1.338.426-1.282z" fill="url(#c)" transform="rotate(-30.604 61 33.095)"/><path d="M73.62 32.426l.229.94.255.17-.227.286.114.797.37 3.59.483.256h.369l2.103-.684-.312-1.224-.426-.456.17-.228-.284-1.795-.71-2.649v-.399l-1.365-6.863-.341-.257.199-.513-.91-4.358-.114-.285-.086-.227.03-.997-.484-.228-2.332.114-.283 1.794-.256 1.197-.2 1.139.313.427-.511.598-.854 3.817v.513l-.17.598-.085.54-.569 3.504.028.57-.312.313-.285 1.795-.767 3.475.995.626 1.762.171.314-1.908-.2-.798.256-.313.313-2.022.569-.228.256-.114 1.904-.455.568-.4h.03l.397-.057.057.228zm-2.614-6.522l-.142-.456.283-.142.57-3.476.425 3.02.115.513.113 1.48.568 3.077-.796.2-1.847.569.028-.2.342-1.851-.03.029.37-2.763z" fill="url(#c)" transform="rotate(-21.667 71.858 27.898)"/><path d="M84.498 13.965l-1.308.085c-.398 0-.767 0-1.194-.028-.227 0-.483.2-.654.2l-.54-.23-2.757-.141-.086 2.335.342.342 1.734-.057c.085 0 .256-.028.455-.086l.142-.142.626.086.17 1.167-.114 1.824.17 1.338-.142 5.81-.142 4.017.257.284-.427 1.795v2.193l1.506.229.796-.143.825-.456-.228-2.022V27.01l-.34-.541.028-.029.256-1.709-.03-2.193v-.484c0-.2-.027-.456-.027-.684-.029-.171-.029-.883-.029-1.139l.057-2.108-.114-.627.171-1.196h.881l.853.057.284.086h1.28l.085-1.34-.17-1.196-2.616.058z" fill="url(#c)" transform="rotate(-13.235 82.622 24.418)"/><path d="M95.73 27.239l.227.94.256.17-.227.285.114.798.37 3.589.482.256h.37l2.103-.683-.312-1.226-.426-.455.17-.228-.284-1.794-.71-2.65v-.398l-1.365-6.865-.342-.256.199-.512-.91-4.358-.113-.285-.086-.228.03-.997-.484-.228-2.332.114-.284 1.795-.256 1.196-.199 1.14.313.426-.512.598-.853 3.818v.512l-.17.598-.085.541-.569 3.504.028.57-.312.313-.285 1.794-.767 3.475.995.627 1.762.17.313-1.908-.2-.797.257-.313.313-2.023.568-.228.256-.114 1.905-.456.568-.398h.03l.397-.057.057.228zm-2.616-6.523l-.142-.456.284-.142.57-3.475.425 3.02.114.512.114 1.48.568 3.077-.796.2-1.847.57.028-.2.34-1.852-.027.029.37-2.763z" fill="url(#c)" transform="rotate(-4.72 93.967 22.71)"/><path d="M108.251 31.896l.996-.798.824-1.026 1.166-.826 1.108-1.139.03-1.31-.03-.598-2.985-2.849-.312-.285-.427-.37-.199-.17 1.422-1.653 1.677-1.823.199-1.68-.114-.57-1.933-1.538-3.752-3.332-2.388.683.056 1.624.085.427.285.285-.313.854.028 3.276.114 3.048-.17 1.31v4.272l.114 1.339-.228 3.874 1.563.285 1.194.37 1.99-1.68zm-1.762-8.318l1.28 1.14.682.712.398.37 1.023 1.281-1.08 1.197-.341.228-.768.655-1.45 1.538.028-1.738-.284-.285.256-.227v-5.041l.256.17zm-.427-4.357l.086-1.482-.028-2.506 1.932 1.709.228.028.142.342.882.798h-.029l-.995 1.082-.114.712-.426.057-1.393 1.51-.227.17-.058-2.42z" fill="url(#c)" transform="rotate(5.535 107.94 22.753)"/><path d="M122.074 29.57l.227.94.256.171-.227.285.113.797.37 3.59.483.255h.37l2.103-.683-.312-1.225-.427-.455.17-.229-.283-1.794-.712-2.649v-.398l-1.364-6.865-.341-.257.199-.512-.91-4.358-.113-.285-.086-.228.03-.997-.484-.228-2.332.114-.284 1.795-.256 1.196-.199 1.14.313.427-.512.598-.853 3.816v.513l-.17.598-.085.542-.57 3.503.03.57-.313.313-.285 1.795-.767 3.475.995.626 1.762.171.313-1.909-.2-.797.257-.313.313-2.023.568-.227.256-.114 1.905-.456.568-.399h.03l.397-.057.057.228zm-2.616-6.523l-.142-.455.284-.143.569-3.474.426 3.019.114.512.114 1.482.568 3.076-.796.2-1.847.568.028-.199.34-1.851-.027.028.37-2.763z" fill="url(#c)" transform="rotate(14.889 120.311 25.041)"/><path d="M130.767 34.199l.056.313-.796.37c-.17.285-.313.541-.483.826-.256.399-.455.712-.74 1.11l-.54.485-.426 1.054 2.332 1.453.767-.94.312-.911-.028.114c.085-.172.17-.4.284-.599l1.137-1.538 1.536-1.88 1.023-1.68-.057-2.222-.767-.57-2.644-2.478-.455-.285-.54-.769-.54-.654.852-1.14.057-.2.285-.398 1.62-1.909.256-.512.739-.74.768-1.14-1.678-1.339-.853-.085-.681 1.139c-.03.085.084.228.028.342l-.569.37-.739.997.057.314-1.45 1.68-1.393 1.994.028 1.794 1.365 1.339 2.19 2.022.567.257.967 1.167-1.847 2.849z" fill="url(#c)" transform="rotate(23.599 131.35 28.872)"/><path fill="url(#c)" transform="rotate(32.158 141.567 34.24)" d="M144.963 26.422l.058-1.595-.029-1.11-2.815.027-1.108.228-.398-.228h-1.62l-1.336.171.142 2.023.312.37-.312.484.028 1.453-.028 2.221v2.108l-.086 1.054.228 2.82-.114.228.029 1.538v.655l.255.342-.34.74-.029 1.31.028.314-.17 1.937.142 1.168 2.132.028.227-.142h.995l1.62.17 1.877.03.654-.286.114-1.054.057-1.424-1.422-.028-.71.228-2.275.028-.227-.057-.257-.057-.056-2.763-.028-.057.084-.256-.17-.826.114-2.934h.454l1.791.057 1.393.057.058-1.168.17-.855-.37-.712-1.45.143-1.108.057-1.052-.057-.057-1.11-.284-.229.312-.513.143-.854v-2.82l.056-.712v-.313h.257l1.563.057.455-.085.085-.03.683.229h1.335z"/></g><g transform="translate(835 239)"><circle stroke="url(#c)" stroke-width="5" cx="100" cy="100" r="100"/><path d="M130 26.904c28.742 11.822 49 40.112 49 73.096 0 43.601-35.399 79-79 79s-79-35.399-79-79c0-32.984 20.258-61.274 49-73.096" stroke="url(#c)" stroke-width="2"/><circle stroke="url(#c)" stroke-width="3" cx="100" cy="100" r="56.495"/><path fill="url(#c)" transform="rotate(-7.434 90.348 22.958)" d="M92.064 21.648l.028 2.364.114.342.057.228-.17 4.5-.029.171-.965-2.107-.454.056-.028-.883-1.674-2.762-.51-.827.369-.569.652-1.254 1.107-1.822 2.155-3.048-.028-.4.993-.853.653-1.111-.738-.684-.312-.228-1.078-.626-1.333 1.851.056.313-1.503 1.823-.284.77-2.156 3.303-.539 1.026-.141.199-.426.285-.057 2.108 1.362 2.079.85 1.168.653 1.253.029.029 1.39 2.506.992 1.51.71 1.424 2.694-.285-.028-1.282-.255-.399.255-.17.142-7.064-.085-.171.34-2.022-.34-.855-2.468.114z"/><path fill="url(#c)" transform="rotate(.318 100.865 22.36)" d="M99.787 20.424l-.085 1.566-.085.883v6.352l.34.485-.34.569-.398 2.535 1.305.029.596.028 1.248-.399.029-1.053-.057-.542-.057-.427v-7.89l-.312-.2.255-.597-.056-.712-.113-1.111.085-1.453.084-3.731.142-.712.142-2.08-1.843-.113-1.334.084.142 1.425.255.142-.227.513.085 5.696.199.713z"/><path d="M112.435 12.569l-1.305.086c-.397 0-.766 0-1.192-.029-.226 0-.482.2-.652.2l-.539-.229-2.752-.142-.084 2.335.34.343 1.73-.058c.085 0 .255-.028.454-.085l.142-.142.624.085.17 1.168-.114 1.823.17 1.338-.14 5.81-.143 4.018.256.285-.426 1.794v2.193l1.504.228.794-.143.823-.455-.227-2.022v-5.356l-.341-.541.028-.028.256-1.71-.028-2.193v-.484c0-.2-.03-.455-.03-.684-.027-.17-.027-.883-.027-1.139l.057-2.107-.114-.627.17-1.196h.88l.85.057.285.085h1.275l.086-1.338-.17-1.197-2.61.057z" fill="url(#c)" transform="rotate(7.479 110.563 23.022)"/><path d="M90.115 84.613c-3.781-.675-6.655-3.982-6.655-7.956a8.085 8.085 0 0 1 8.081-8.082 8.085 8.085 0 0 1 8.082 8.082 8.044 8.044 0 0 1-1.449 4.616l9.669 9.668a8.041 8.041 0 0 1 4.616-1.449c4.46 0 8.081 3.622 8.081 8.082a8.085 8.085 0 0 1-8.081 8.081 8.085 8.085 0 0 1-8.082-8.081c0-1.716.536-3.307 1.449-4.616l-9.669-9.668a8.04 8.04 0 0 1-3.189 1.323v28.774c3.781.675 6.655 3.982 6.655 7.956a8.085 8.085 0 0 1-8.082 8.082 8.085 8.085 0 0 1-8.081-8.082c0-3.974 2.874-7.281 6.655-7.956V84.613z" fill="url(#c)"/><circle fill="url(#c)" cx="179.031" cy="100" r="4.031"/><circle fill="url(#c)" cx="21.031" cy="100" r="4.031"/><circle fill="url(#c)" cx="100" cy="178.969" r="4.031"/></g><g transform="translate(455 239)"><circle stroke="url(#c)" stroke-width="5" cx="100" cy="100" r="100"/><path fill="url(#c)" transform="rotate(-39.152 51.627 39.923)" d="M51.812 37.844l-.143 1.567.03 1.765.028.399v1.111l-.114 3.105.056.256-.426.598-1.251.826-1.25.513v1.48l1.563 1.169 2.104-1.71-.029-.569.768-.114.91-.797.455-.798-.342-4.899-.227-.854.312-.228-.113-7.947.341-2.506-.37-.997-2.7.056v1.596l.512.284-.37.456.085 4.814.17 1.424z"/><path d="M63.669 37.233l.227.94.256.17-.227.285.114.798.37 3.589.482.256h.37l2.104-.683-.313-1.226-.426-.455.17-.228-.284-1.794-.71-2.65v-.398l-1.365-6.865-.342-.256.199-.512-.91-4.358-.113-.285-.086-.228.03-.997-.484-.228-2.332.114-.283 1.795-.257 1.196-.199 1.139.313.427-.512.598-.853 3.817v.513l-.17.598-.085.541-.569 3.503.028.57-.312.314-.285 1.794-.767 3.475.995.626 1.762.172.314-1.909-.2-.797.256-.313.313-2.023.568-.228.257-.114 1.904-.456.568-.399h.03l.397-.056.057.228zm-2.616-6.523l-.141-.456.283-.142.57-3.475.425 3.019.115.513.113 1.48.568 3.077-.796.2-1.847.57.028-.2.342-1.852-.03.028.37-2.762z" fill="url(#c)" transform="rotate(-29.868 61.906 32.704)"/><path d="M72.42 26.51l-.654-4.245-.143-.227.03-.114-.456-2.08-.454-3.246-1.65.114-1.28.57 1.053 3.617.227 1.936c.114.513.285 1.14.455 1.71l.341.483-.113.97.312 1.11v-.086l.854 5.583.34.171-.141.684.511 3.133.484 1.253 1.136-.029 1.507-.056.54-2.393.341-1.994-.284-.598.398-.399.939-4.33v-.17c0-.057-.03-.171-.03-.2-.027-.057-.027 0-.027-.057l.37-.712.653-4.785c.029-.313.085-.54.17-.797l.257-.969c.142-.598.312-1.253.454-1.765l.341-1.567-2.473-.427-.483.54-.426 2.963.17.484.029.2-.427.285-.484 3.104-.283 2.763-.285.855-.427 2.82.03-.03-.37 3.077-.313-3.076-.74-4.073z" fill="url(#c)" transform="rotate(-20.434 73.357 27.222)"/><path d="M87.688 28.328l.227.94.256.171-.228.285.114.798.37 3.589.483.256h.37l2.104-.683-.313-1.226-.427-.455.171-.228-.284-1.795-.711-2.648v-.4l-1.365-6.864-.34-.256.198-.513-.91-4.358-.113-.285-.085-.227.028-.997-.484-.228-2.33.113-.285 1.795-.255 1.196-.2 1.14.313.427-.511.598-.854 3.817v.513l-.17.598-.086.541-.568 3.503.028.57-.312.313-.285 1.795-.767 3.475.995.626 1.762.172.313-1.909-.199-.797.256-.314.313-2.022.569-.228.255-.114 1.905-.456.569-.399h.028l.398-.056.057.227zm-2.615-6.522l-.143-.456.285-.142.568-3.475.427 3.019.113.512.114 1.482.569 3.076-.796.2-1.849.569.03-.2.34-1.85-.028.027.37-2.762z" fill="url(#c)" transform="rotate(-10.724 85.925 23.8)"/><path d="M96.94 27.795l.057.313-.796.37c-.17.285-.313.542-.483.826-.257.4-.456.713-.74 1.112l-.54.483-.426 1.055 2.33 1.452.769-.94.312-.911-.028.114c.085-.171.17-.4.284-.599l1.137-1.537 1.535-1.88 1.024-1.681-.057-2.221-.768-.57-2.643-2.479-.455-.284-.54-.769-.54-.655.852-1.14.057-.199.285-.399 1.62-1.908.256-.513.74-.74.766-1.14-1.676-1.339-.854-.085-.682 1.14c-.028.085.085.227.029.341l-.569.37-.74.997.058.314-1.45 1.68-1.394 1.994.03 1.795 1.363 1.338 2.19 2.022.568.257.967 1.168-1.848 2.848z" fill="url(#c)" transform="rotate(-2.089 97.523 22.468)"/><path fill="url(#c)" transform="rotate(5.263 107.563 22.647)" d="M104.038 24.711l1.023 1.852 1.308 1.225-.228.512 2.161 3.361.057.343.967 1.51.966-.628 1.479-1.225-.654-1.053-1.479-1.937-1.307-2.222-1.052-1.623-.256-.57-.398-.399-.285-.541-.426-.826.37-.684.54-.968.938-1.481 1.706-2.536.142-.768.483-.313.796-1.112.796-1.424-2.132-1.424-.995 1.168-.028.228-1.593 2.62v.114l-.71 1.14v.684l-1.023.996-1.849 3.133.03 1.823.653 1.025z"/><path d="M118.213 26.583l1.137 2.307.256.654 1.053 1.994.34.171-.028.485.995 2.278.682 1.111 2.303-1.282.028-.826-.938-.997-.512-1.082v.028l-.398-.826-.17-.085v-.37l-1.137-1.937c-.2-.285-.37-.428-.597-.684v-.484c-.17-.342-.512-.826-.711-1.225l.796-1.082.483-.598.91-1.083 1.308-1.595.199-1.709-1.365-1.253c-.028 0-.483.142-.512.114l-.17-.713-4.52-3.93-2.246.911.114 2.45.141 5.44-.227.57.057 1.481.114 3.333v1.11l.255.37-.426 1.112-.17 4.529 1.876.17 1.137-.455-.029-2.364-.085-.257-.085-2.848-.029-3.105.171.172zm-.113-2.678l-.114-2.536-.057-.313-.057-.17-.114-.513.228-.541v-.285l.056-2.193 2.617 2.592.199.142.568.712-.313.4a46.872 46.872 0 0 1-1.45 1.878l-1.422 1.767-.199.113.058-1.053z" fill="url(#c)" transform="rotate(14.71 120.118 24.774)"/><path fill="url(#c)" transform="rotate(21.975 129.342 27.972)" d="M128.262 26.035l-.085 1.567-.085.883v6.352l.34.484-.34.57-.398 2.535 1.307.028.597.029 1.25-.399.03-1.054-.057-.541-.057-.428v-7.89l-.313-.199.256-.598-.057-.712-.114-1.11.086-1.454.085-3.73.142-.713.142-2.08-1.848-.113-1.336.086.142 1.423.256.143-.227.513.085 5.697.199.711z"/><path d="M141.761 32.317l.91-.883.881-1.081.057-1.966-2.957-3.134-.597-.199-.113-.484-2.559-2.649-.91.342-1.364.598.057 1.909.142 1.167v4.671l-.057.143-.029 7.12.342.371-.256.883-.313 4.073 1.65.171 1.42-.086-.17-3.531-.455-.399.455-.684-.057-1.965.256-.285 1.904-2.164 1.763-1.938zm-3.895-1.936l-.312-.57.284-.883-.029-1.367.03-2.023 1.648 1.852.256.171.199.399 1.222 1.367-.455.655-.284.712-.313-.086-1.421 1.681-.825.883v-2.791z" fill="url(#c)" transform="rotate(30.128 139.302 32.645)"/><path d="M149.595 28.085l-1.308.085c-.398 0-.767 0-1.194-.028-.227 0-.483.2-.653.2l-.54-.228-2.758-.143-.085 2.336.34.342 1.735-.057c.085 0 .255-.029.454-.086l.143-.142.625.085.171 1.168-.114 1.823.17 1.338-.141 5.811-.143 4.016.256.285-.426 1.795v2.193l1.507.228.796-.142.824-.456-.227-2.023V41.13l-.342-.54.03-.03.255-1.708-.029-2.194v-.484c0-.2-.028-.455-.028-.683-.029-.171-.029-.883-.029-1.14l.057-2.107-.113-.627.17-1.196h.881l.853.056.285.086h1.28l.084-1.338-.17-1.197-2.616.057z" fill="url(#c)" transform="rotate(37.698 147.719 38.538)"/><circle stroke="url(#c)" stroke-width="3" cx="100" cy="100" r="56.495"/><path fill="url(#c)" d="M116.554 171.369l8.62 11.091-14.165-6.781-1.538-7.701 7.083 3.391zM133.746 165.005l11.097 8.612-15.403-3.063-3.396-7.081 7.702 1.532zM148.827 154.583l12.884 5.597-15.682.845-5.043-6.019 7.841-.423zM160.859 140.753l13.868 2.232-14.985 4.702-6.375-4.584zM169.092 124.374l13.99-1.27-13.355 8.264-7.312-2.862zM173.015 106.466l13.239-4.693-10.893 11.313-7.793-.963 5.447-5.657zM172.382 88.146l11.665-7.825-7.753 13.657-7.789.996 3.877-6.828zM167.233 70.552l9.365-10.47-4.13 15.152-7.3 2.894 2.065-7.576zM34.688 65.871l-14.03-.69 14.375-6.325 6.842 3.852zM28.311 83.057l-13.764 2.805 12.362-9.686 7.583 2.038-6.181 4.843zM26.387 101.288l-12.641 6.125 9.579-12.446 7.852.098-4.79 6.223zM29.036 119.427l-10.731 9.064 6.2-14.429 7.631-1.849-3.1 7.214zM36.094 136.346l-8.154 11.438 2.435-15.515 6.936-3.68zM47.12 150.991l-5.068 13.101-1.482-15.635 5.809-5.283.741 7.817zM61.428 162.451l-1.667 13.947-5.306-14.781 4.32-6.557zM78.128 170.012l1.838 13.926-8.801-13.008 2.563-7.422 4.4 6.504zM96.18 173.203l5.228 13.038-11.747-10.424.646-7.826z"/><path d="M83.5 75c-6.075 0-11 4.925-11 11v9.86c0 1.411-5 2.711-5 4.14 0 1.288 5 2.705 5 3.978V114c0 6.075 4.925 11 11 11" stroke="url(#c)" stroke-width="3"/><circle fill="url(#c)" cx="100.067" cy="89.086" r="4.433"/><path d="M100.067 102.052l.057.001.04.001.048.001.026.001.023.001.077.004h.003l.076.005.019.002.023.002.041.003.048.005.028.003.055.007.025.003.041.006.038.006.069.011.02.003.024.004.04.008.037.007.071.014.018.004.022.005.039.009.037.009.074.018.048.013.046.013.022.006.03.009.039.012.039.012.023.007.059.02.047.016.022.008.059.021.046.018.026.01.025.01.025.01.035.015.049.021.04.017.049.023.024.011.025.011c.065.031.129.063.192.097l.023.013.032.018.043.023.049.029.039.023.046.028.045.028.045.029.022.014.023.015.022.015.022.015.044.03.021.016.022.015.031.023.042.031.034.026.042.032.021.017.021.017.028.023.034.027.02.017.04.035.018.016.03.026.026.023.033.031.064.06.033.032.011.011.019.019.028.028.028.028.018.02.018.019.027.028.028.031.018.019.017.02.018.02.013.015.039.046.017.02.022.026.016.02.013.016.016.02.017.021.023.03.032.042.026.034.031.043.016.022.015.022.021.03.016.024.038.056.025.039.023.036.01.015.011.019.022.036.009.013.013.023.014.024.013.023.02.034.02.036.003.006.046.086.026.05.012.024.012.024.007.016c.027.054.052.11.077.166l.006.014.01.025c.225.53.349 1.113.349 1.725v.496a8.37 8.37 0 0 1-8.071 8.365 12.08 12.08 0 0 0 2.56-4.56 4.437 4.437 0 0 1-3.355-4.301 4.436 4.436 0 0 1 2.81-4.126l.013-.006.004-.001.002-.001.034-.013.003-.001.004-.002.014-.005.016-.006.004-.002h.002l.034-.013.003-.001.005-.001.012-.005.018-.006.004-.001.001-.001.003-.001a.615.615 0 0 0 .032-.011l.003-.001.005-.001.011-.004.02-.006.003-.002h.001l.035-.011.004-.001.004-.002.011-.003.021-.007h.003l.001-.001.035-.01.004-.001.004-.002.01-.003.024-.006.002-.001.035-.01.005-.001.004-.001.009-.003.027-.007.036-.009.004-.001.004-.001.036-.009h.001l.001-.001.007-.002.017-.004.01-.002.005-.001.004-.001a.465.465 0 0 1 .036-.008h.001l.002-.001.023-.005.011-.002.005-.001.004-.001.036-.008h.001l.003-.001.019-.004h.002l.012-.002.005-.001.003-.001a.405.405 0 0 0 .037-.007h.001l.004-.001.019-.003.014-.003h.005l.003-.001.036-.006h.002l.005-.001.018-.003.014-.002.005-.001.003-.001.036-.005h.003l.005-.001.016-.003.015-.002h.006l.002-.001h.005a.35.35 0 0 1 .032-.004l.003-.001h.005l.015-.002.017-.002.005-.001h.002l.037-.004.003-.001h.005l.015-.002.018-.001.005-.001h.002l.037-.003.003-.001h.005l.005-.001h.009l.019-.002h.006l.038-.003h.003l.006-.001.012-.001.022-.001h.005a.459.459 0 0 1 .037-.002h.004l.005-.001h.012l.023-.001h.004l.038-.002h.02l.026-.001h.06l.029-.001z" fill="url(#c)"/><path d="M116.5 75c6.075 0 11 4.925 11 11v9.86c0 1.411 5 2.711 5 4.14 0 1.288-5 2.705-5 3.978V114c0 6.075-4.925 11-11 11" stroke="url(#c)" stroke-width="3"/></g><g transform="translate(75 239)"><circle stroke="url(#c)" stroke-width="5" cx="100" cy="100" r="100"/><circle stroke="url(#d)" stroke-width="3" cx="100" cy="100" r="56.495"/><path fill="url(#c)" transform="rotate(-34.439 56.597 35.882)" d="M51.85 41.636l.057 1.794.398.427-.455.541-.085 1.909 1.79.17 1.167-.056.028-1.054-.086-1.282-.17-1.51.029-.085.141-4.956 2.218-.94h.029l1.648-.37-.028.513.085.398-.057 4.387.426.455-.283.257-.2 3.19.37.997h1.649l1.051-.057-.056-1.567-.2-.712-.056-3.646-.057-5.098-.057-.57-.085-1.282.142-2.677-.256-.826.284-.37.029-1.083v.029l.17-1.624.086-1.424-1.62-.057-1.053-.029-.426.827.142 1.139.057 2.563.086 2.592-.115.769-.312.143-.54.256-1.166.512-.255.314-.456-.17-1.194.426-.057.029-.255-2.763.113-1.88-.312-.257.34-.54.143-1.738.114-2.05-2.445-.314-.683.455.2 1.767-.085.57.084 1.88.2 1.765-.114 2.791.199 3.22-.256 3.902z"/><path d="M70.216 18.848l-1.308.085c-.398 0-.768 0-1.194-.029-.228 0-.483.2-.654.2l-.54-.228-2.758-.142-.085 2.335.341.342 1.734-.057c.086 0 .256-.028.455-.085l.142-.143.625.086.171 1.167-.113 1.824.17 1.338-.142 5.81-.142 4.017.255.284-.426 1.795v2.193l1.507.229.796-.143.824-.456-.227-2.022v-5.355l-.341-.541.028-.029.256-1.709-.029-2.193v-.484c0-.2-.028-.456-.028-.684-.028-.17-.028-.883-.028-1.139l.056-2.108-.113-.627.17-1.196h.882l.852.057.285.086h1.28l.085-1.34-.171-1.196-2.615.058z" fill="url(#c)" transform="rotate(-24.474 68.34 29.301)"/><path fill="url(#c)" transform="rotate(-14.219 81.3 24.636)" d="M79.538 16.703l-1.28-2.592-1.051.142-1.223.086.029 1.595.028.285.256.37.028.142-.227.4.17 2.79-.028 2.564.455.313-.455.485-.17 7.832v1.31l.255.684v-.028l-.37 1.082.228 1.083 2.672-.057v-1.225l-.056-4.187-.2-4.045.2-.484v-3.93l-.03-.029v-.029l.058-1.908.597 1.168.2.456.113.227.682 1.339.768.029 1.023-.2.398-1.025.37-.684v-.284l.482-.628.257-.455.113 1.054-.199 6.21.114 1.31.312.285-.34.512v3.047l-.2 1.88.086 1.225.682.428 2.36-.115-.17-1.794-.058-.912-.199-1.566.142-1.794-.227-9.172-.285-.398.342-.656.199-4.215-.768-.342-1.393-.256-1.478 2.478.227.484-.426.142-.91 1.653-.483.74-.028-.028-1.592-2.792z"/><path fill="url(#c)" transform="rotate(-3.677 95.358 22.478)" d="M96.906 30.41l-2.16.058v-.827l-.114-1.993.03-.029-.086-1.965-.057-1.737-.341-.371.312-.484v-1.396l.171-3.133.085-3.19.114-.969.057-1.85-.74-.656-.938.228h-1.478l.2 3.105.454.142-.37.484.057 9.286-.199 4.7.256.711-.37.513.058 1.937 1.279.057 1.25-.228.256.171h1.223l.398-.028 2.16.142.427-.54.114-1.795-.086-.598-1.336.056-.626.2z"/><path fill="url(#c)" transform="rotate(8.607 112.05 23.236)" d="M110.999 22.154h-1.052l-.853-.114-.597-.115h-1.223l-.085 1.88.114.599.767.029 1.138-.143h1.762v.598l.114.484-.114.883-.028.427-.086.485-.113.883-.114.626.739.143h.853l1.109-.143.113-.57-.028-.712-.143-.54-.028-2.536h.256l1.052.115 1.478.113.74.114.142-.797v-1.681l-.114-.257-1.45.171-.995.029-.285.17-.91-.17.03-.74.199-1.966-.143-.455.227-1.026-.54-.256-2.046-.029-.057.826.142 2.165.114.17-.085 1.34z"/><path fill="url(#c)" transform="rotate(22.063 129.469 27.977)" d="M125.944 30.042l1.024 1.852 1.307 1.224-.228.513 2.161 3.361.057.341.966 1.51.967-.626 1.478-1.225-.654-1.054L131.545 34l-1.309-2.221-1.051-1.624-.256-.57-.398-.398-.285-.542-.426-.826.37-.683.54-.969.938-1.48 1.706-2.536.142-.77.483-.312.796-1.111.796-1.424-2.132-1.424-.995 1.167-.029.229-1.592 2.62v.114l-.71 1.139v.683l-1.024.997-1.848 3.134.03 1.823.653 1.025z"/><path d="M137.94 37.802l.056.313-.796.37c-.171.286-.313.542-.484.826-.255.4-.454.712-.738 1.111l-.541.485-.426 1.054 2.331 1.452.767-.94.313-.911-.028.114c.085-.171.17-.399.284-.598l1.137-1.538 1.536-1.88 1.023-1.68-.057-2.222-.767-.57-2.645-2.478-.454-.285-.54-.77-.54-.654.852-1.14.057-.199.285-.398 1.62-1.91.256-.512.739-.74.768-1.14-1.678-1.338-.853-.086-.682 1.14c-.029.085.085.227.029.341l-.57.37-.738.998.056.313-1.449 1.68-1.393 1.994.028 1.795 1.365 1.338 2.189 2.022.568.257.967 1.168-1.848 2.848z" fill="url(#c)" transform="rotate(29.565 138.522 32.476)"/><path d="M145.756 42.891l.057.314-.796.37c-.17.285-.312.541-.483.826-.256.399-.455.712-.739 1.11l-.54.485-.427 1.054 2.331 1.452.768-.94.313-.911-.029.114c.086-.17.171-.398.285-.598l1.137-1.538 1.534-1.88 1.024-1.68-.057-2.223-.768-.569-2.643-2.478-.455-.285-.54-.769-.54-.655.853-1.14.057-.199.284-.399 1.62-1.908.256-.513.74-.74.766-1.14-1.676-1.338-.853-.085-.683 1.139c-.028.085.086.228.03.342l-.57.37-.74.996.058.314-1.45 1.68-1.393 1.994.029 1.795 1.364 1.339 2.189 2.022.569.256.966 1.168-1.848 2.848z" fill="url(#c)" transform="rotate(36.456 146.34 37.565)"/><path d="M58.106 165.576a4.958 4.958 0 0 0 3.496-.035l5.959-2.313-9.581-3.946a4.958 4.958 0 0 0-3.064-.232l-8.781 2.146 11.971 4.38zM42.481 153.438a4.955 4.955 0 0 0 3.391.851l6.35-.73-8.271-6.242a4.958 4.958 0 0 0-2.905-.999l-9.039-.145 10.474 7.265zM30.434 137.742a4.958 4.958 0 0 0 3.066 1.682l6.328.899-6.423-8.13a4.958 4.958 0 0 0-2.558-1.702l-8.708-2.427 8.295 9.678zM22.75 119.51a4.954 4.954 0 0 0 2.54 2.402l5.895 2.471-4.157-9.49a4.953 4.953 0 0 0-2.045-2.294l-7.81-4.55 5.577 11.461zM19.928 99.927a4.952 4.952 0 0 0 1.85 2.967l5.078 3.882-1.621-10.234a4.961 4.961 0 0 0-1.398-2.736l-6.406-6.379 2.497 12.5zM22.151 80.267a4.955 4.955 0 0 0 1.039 3.338l3.931 5.04 1.021-10.311a4.956 4.956 0 0 0-.661-3.001l-4.583-7.791-.747 12.725zM29.275 61.809a4.958 4.958 0 0 0 .161 3.492l2.529 5.871 3.595-9.718a4.96 4.96 0 0 0 .12-3.07l-2.464-8.697-3.941 12.122zM141.786 165.576a4.958 4.958 0 0 1-3.496-.035l-5.959-2.313 9.581-3.946a4.958 4.958 0 0 1 3.064-.232l8.781 2.146-11.971 4.38zM157.411 153.438a4.955 4.955 0 0 1-3.391.851l-6.35-.73 8.271-6.242a4.958 4.958 0 0 1 2.905-.999l9.038-.145-10.473 7.265zM169.458 137.742a4.958 4.958 0 0 1-3.066 1.682l-6.328.899 6.423-8.13a4.954 4.954 0 0 1 2.558-1.702l8.708-2.427-8.295 9.678zM177.142 119.51a4.952 4.952 0 0 1-2.541 2.402l-5.895 2.471 4.158-9.49a4.956 4.956 0 0 1 2.044-2.294l7.811-4.55-5.577 11.461zM179.964 99.927a4.957 4.957 0 0 1-1.85 2.967l-5.078 3.882 1.621-10.234a4.955 4.955 0 0 1 1.398-2.736l6.406-6.379-2.497 12.5zM177.741 80.267a4.956 4.956 0 0 1-1.04 3.338l-3.931 5.04-1.02-10.311a4.962 4.962 0 0 1 .66-3.001l4.584-7.791.747 12.725zM170.617 61.809a4.952 4.952 0 0 1-.162 3.492l-2.528 5.871-3.595-9.718a4.952 4.952 0 0 1-.12-3.07l2.463-8.697 3.942 12.122z" fill="url(#c)"/><circle fill="url(#c)" cx="99.5" cy="182.729" r="3.469"/><path d="M86.807 164.148c-1.16-.627-2.592-.921-4.027-.829l-7.901.507 10.009 5.868c.982.576 2.187.908 3.442.948l11.17.355-12.693-6.849zm0 13.699c-1.16.626-2.592.921-4.027.829l-7.901-.508 10.009-5.868c.982-.575 2.187-.907 3.442-.947l11.17-.356-12.693 6.85z" fill="url(#c)"/><path d="M112.193 164.148c1.16-.627 2.592-.921 4.027-.829l7.901.507-10.009 5.868c-.982.576-2.187.908-3.442.948l-11.17.355 12.693-6.849zm0 13.699c1.16.626 2.592.921 4.027.829l7.901-.508-10.009-5.868c-.982-.575-2.187-.907-3.442-.947l-11.17-.356 12.693 6.85z" fill="url(#c)"/><path stroke="url(#d)" stroke-width="3" d="M80 115l-20-15 20-15M90 120l20-40M120 115l20-15-20-15"/></g></g></svg>