<svg width="110" height="165" viewBox="0 0 110 165" xmlns="http://www.w3.org/2000/svg"><title>BD99B97C-CC37-467F-8B1A-E6D280A84796</title><g fill="none" fill-rule="evenodd"><path d="M0 7.583a2 2 0 0 1 1.231-1.846L13.027.822a10 10 0 0 1 4.109-.766l90.917 2.393A2 2 0 0 1 110 4.448V133a2 2 0 0 1-2 2H90v27.369a1.998 1.998 0 0 1-2.535 1.927L2.929 140.814A4 4 0 0 1 0 136.96V7.583z" fill="#CC9543"/><g stroke-width="2" stroke="#FFF"><path d="M27.542 64.871L12.57 74.724l14.879 15.255M59.891 68.003l14.888 12.744-14.981 12.364M37.384 95.964L51.2 62.138"/></g><path d="M20.606 2.748a3.174 3.174 0 0 1 1.332-.207l81.176 4.846a2 2 0 0 1 1.881 2.002l-.357 132.098a1.998 1.998 0 0 1-2.251 1.979L90 141.9V22.355a2 2 0 0 0-1.724-1.981L6.916 9.017a.499.499 0 0 1-.11-.961l13.8-5.308z" fill="#D8D8D8"/><path d="M95.095 154.503a1.999 1.999 0 0 0 2.405-1.959V15.547a2 2 0 0 0-1.787-1.989L15 4.904 6.806 8.056a.5.5 0 0 0 .11.961l81.36 11.357A2 2 0 0 1 90 22.355V153.45l5.095 1.053z" fill="#EEE"/></g></svg>