<svg width="66" height="89" viewBox="0 0 66 89" xmlns="http://www.w3.org/2000/svg"><title>E417A0EB-B2D0-4387-A5E5-B2EB48BB7BF3</title><defs><linearGradient x1="43.921%" y1="59.791%" x2="78.853%" y2="62.034%" id="a"><stop stop-color="#E6E6E6" offset="0%"/><stop stop-color="#D8D8D8" offset="55%"/><stop stop-color="#A1A1A1" offset="100%"/></linearGradient><linearGradient x1="56.079%" y1="59.791%" x2="21.147%" y2="62.034%" id="b"><stop stop-color="#E6E6E6" offset="0%"/><stop stop-color="#D8D8D8" offset="55%"/><stop stop-color="#A1A1A1" offset="100%"/></linearGradient><linearGradient x1="2.783%" y1="53.433%" x2="109.278%" y2="63.535%" id="c"><stop stop-color="#E6E6E6" offset="0%"/><stop stop-color="#D8D8D8" offset="55%"/><stop stop-color="#A1A1A1" offset="100%"/></linearGradient><linearGradient x1="97.217%" y1="53.433%" x2="-9.278%" y2="63.535%" id="d"><stop stop-color="#E6E6E6" offset="0%"/><stop stop-color="#D8D8D8" offset="55%"/><stop stop-color="#A1A1A1" offset="100%"/></linearGradient></defs><g fill="none" fill-rule="evenodd"><path fill="#EED9C3" d="M13.2 53.134l6.6-19.925h26.4l6.6 19.925z"/><ellipse fill="#353535" cx="41.465" cy="41.64" rx="1.865" ry="1.877"/><path d="M29.122 39.648c0-.734-.59-1.329-1.32-1.329h-5.28c-.729 0-1.32.595-1.32 1.329v3.32c0 1.1.887 1.993 1.98 1.993h1.32c1.226 0 2.4-.49 3.268-1.362a4.666 4.666 0 0 0 1.352-3.287v-.664z" fill="#A78347"/><path fill="#CE973D" d="M52.8 19.925L33 13.284l-19.8 6.641v19.926l2.64 5.313L19.8 33.21 33 39.851l13.2-6.642 3.96 11.955 2.64-5.313z"/><path d="M52.8 6.642L66 0l-3.3 13.284-1.65 6.641-1.65 6.642-6.6 6.642zM13.2 33.209l-6.6-6.642-1.65-6.642-1.65-6.641L0 0l13.2 6.642z" fill="#E6E6E6"/><path fill="url(#a)" d="M26.4 49.813L21.12 81.03l-7.28-5.314 5.96-22.582z"/><path fill="url(#b)" d="M39.6 49.813l5.28 31.217 7.28-5.314-5.96-22.582z"/><path fill="url(#c)" d="M13.2 39.85L7.92 59.777l6.6 13.284 5.28-19.926z"/><path fill="url(#d)" d="M52.8 39.85l5.28 19.926-6.6 13.284-5.28-19.926z"/><path fill="#E6E6E6" d="M26.4 49.813l-5.94 32.545L33 89l12.54-6.642-5.94-32.545-6.108-3.073-.492-.247z"/><path d="M35.365 51.142h-4.62v1.662c0 .616.244 1.206.677 1.642a2.3 2.3 0 0 0 1.632.68h.001c1.276 0 2.31-1.04 2.31-2.324v-1.66z" fill="#353535"/></g></svg>
