<svg xmlns="http://www.w3.org/2000/svg" viewBox="0 0 62 53"><defs><style>.cls-1{fill:#fff;}.cls-2,.cls-3{fill:none;stroke:#000;stroke-linecap:round;stroke-linejoin:round;stroke-width:2px;}.cls-3{stroke-dasharray:0.26 3.08;}</style></defs><title>Asset 3</title><g id="Layer_2" data-name="Layer 2"><g id="Layer_1-2" data-name="Layer 1"><line class="cls-1" x1="31" y1="35" x2="31" y2="15"/><line class="cls-2" x1="31" y1="35" x2="31" y2="34.88"/><line class="cls-3" x1="31" y1="31.8" x2="31" y2="16.66"/><line class="cls-2" x1="31" y1="15.13" x2="31" y2="15"/><rect class="cls-2" x="5" y="4" width="51" height="43"/><polyline class="cls-2" points="1 52 1 9 5.25 9 52 9 52 47.25 52 52"/><polyline class="cls-2" points="10 1 10 4.75 10 43 56.75 43 61 43 61 1"/><path class="cls-2" d="M39.24,17l-8.5-4.25L22.24,17c0,17,8.5,21.25,8.5,21.25S39.24,34,39.24,17Z"/></g></g></svg>