<svg xmlns="http://www.w3.org/2000/svg" viewBox="0 0 67.09 51"><defs><style>.cls-1,.cls-4{fill:none;}.cls-1,.cls-2,.cls-4{stroke:#000;stroke-linecap:round;stroke-linejoin:round;stroke-width:2px;}.cls-2,.cls-3{fill:#fff;}.cls-4{stroke-dasharray:0.27 3.25;}</style></defs><title>Asset 1</title><g id="Layer_2" data-name="Layer 2"><g id="Layer_1-2" data-name="Layer 1"><rect class="cls-1" x="20" y="14" width="6" height="6"/><path class="cls-2" d="M14.25,26,11,29.33v7s-.66,3.26,3,3.26V46H7.08L3.81,50H29.92l-3.26-4H20V42h4V36h3.25L24,32.67V29.33L20.75,26Z"/><line class="cls-3" x1="26.66" y1="29.81" x2="42.97" y2="23.28"/><line class="cls-1" x1="26.66" y1="29.81" x2="26.77" y2="29.76"/><line class="cls-4" x1="29.79" y1="28.56" x2="41.35" y2="23.93"/><line class="cls-1" x1="42.86" y1="23.33" x2="42.97" y2="23.28"/><path class="cls-2" d="M55.75,20A3.21,3.21,0,0,1,59,23.33v5.91l-4,3.55V40h7.54l3.55,4H37.68l3.55-4H50V36H46V30H42.75L46,26.67V23.33A3.21,3.21,0,0,1,49.25,20Z"/><rect class="cls-1" x="40" y="1" width="26" height="13"/><line class="cls-1" x1="46" y1="1" x2="46" y2="14"/><line class="cls-1" x1="53" y1="1" x2="53" y2="14"/><line class="cls-1" x1="59" y1="1" x2="59" y2="14"/><line class="cls-1" x1="40" y1="7" x2="65" y2="7"/><rect class="cls-1" x="18" y="1" width="6" height="6"/><rect class="cls-1" x="28" y="4" width="6" height="6"/><rect class="cls-1" x="14" y="7" width="6" height="6"/><rect class="cls-1" x="4" y="7" width="6" height="6"/><rect class="cls-1" x="4" y="16" width="6" height="6"/><rect class="cls-1" x="1" y="4" width="6" height="6"/></g></g></svg>