<svg width="58" height="57" viewBox="0 0 58 57" xmlns="http://www.w3.org/2000/svg"><title>42A93862-9332-4405-BB84-978DAD2617BB</title><g fill="none" fill-rule="evenodd"><path fill="#F3F3F3" d="M-801-441H643v621H-801z"/><path d="M21.031 45.351a10.867 10.867 0 0 0-5.909-6.43C16.86 37.607 18 35.543 18 33.2c0-3.972-3.228-7.2-7.2-7.2-3.97 0-7.2 3.228-7.2 7.2 0 2.34 1.14 4.402 2.875 5.717C2.671 40.59 0 44.384 0 48.8c0 .662.538 1.2 1.2 1.18h15.86a13.353 13.353 0 0 1 3.971-4.629M36 45.351a10.867 10.867 0 0 1 5.909-6.43c-1.738-1.315-2.878-3.379-2.878-5.721 0-3.972 3.228-7.2 7.2-7.2 3.97 0 7.2 3.228 7.2 7.2 0 2.34-1.14 4.402-2.875 5.717 3.804 1.673 6.475 5.467 6.475 9.883 0 .662-.537 1.2-1.2 1.18H39.972A13.353 13.353 0 0 0 36 45.352" fill="#D8D8D8"/><path d="M38.4 56.983c.662 0 1.2-.518 1.2-1.183 0-4.414-2.669-8.208-6.473-9.88C34.86 44.603 36 42.54 36 40.2c0-3.97-3.23-7.2-7.2-7.2s-7.2 3.23-7.2 7.2c0 2.34 1.14 4.404 2.873 5.72C20.669 47.591 18 51.385 18 55.8c0 .665.538 1.183 1.2 1.183h19.2z" fill="#D8D8D8"/><path d="M37.126 7.2H20.4c-.662 0-1.2-.552-1.2-1.217a1.2 1.2 0 0 1 1.2-1.2h16.726a1.2 1.2 0 0 1 1.2 1.2c0 .665-.538 1.217-1.2 1.217m0 4.8H20.4c-.662 0-1.2-.552-1.2-1.217a1.2 1.2 0 0 1 1.2-1.2h16.726a1.2 1.2 0 0 1 1.2 1.2c0 .665-.538 1.217-1.2 1.217m0 4.8H20.4c-.662 0-1.2-.552-1.2-1.217a1.2 1.2 0 0 1 1.2-1.2h16.726a1.2 1.2 0 0 1 1.2 1.2c0 .665-.538 1.217-1.2 1.217M42 0H15.6A3.59 3.59 0 0 0 12 3.583v16.8c0 1.985 1.615 3.6 3.6 3.6h1.903l6.85 6.85c.23.228.535.35.847.35.665 0 1.2-.535 1.2-1.2v-6H42c1.985 0 3.6-1.615 3.6-3.6v-16.8A3.59 3.59 0 0 0 42 0" fill="#CC9543"/></g></svg>