<svg width="59" height="60" viewBox="0 0 59 60" xmlns="http://www.w3.org/2000/svg"><title>42A7E69A-4A9E-414B-AEAF-37FBD31A8EF7</title><g fill="none" fill-rule="evenodd"><path fill="#F3F3F3" d="M-802-255H642v621H-802z"/><path d="M44 20c-1.377 0-2.5-1.12-2.5-2.5v-1.08l4.995 1.11A2.5 2.5 0 0 1 44 20M57.75 0c-.69 0-1.25.56-1.25 1.25v1.498L36.44 7.204c-.135-.545-.605-.955-1.19-.955-.69 0-1.25.56-1.25 1.25V15c0 .69.56 1.25 1.25 1.25.585 0 1.055-.41 1.19-.955l2.56.57V17.5c0 2.758 2.242 5 5 5 2.56 0 4.653-1.942 4.943-4.427l7.557 1.68v1.497a1.25 1.25 0 0 0 2.5 0v-20C59 .56 58.44 0 57.75 0" fill="#CC9543"/><path d="M15 0C9.485 0 5 4.485 5 10s4.485 10 10 10 10-4.485 10-10S20.515 0 15 0M9 50v8.75c0 .69.56 1.25 1.25 1.25h10c.69 0 1.25-.56 1.25-1.25V50H9zM14.898 31.313l5.897-8.205C18.972 21.762 16.977 21 14.897 21c-2.082 0-4.077.762-5.897 2.105l5.898 8.207z" fill="#D8D8D8"/><path d="M22.793 25.003l-6.776 9.425c-.47.652-1.56.652-2.03 0L7.21 25C2.928 29.457 0 37.373 0 46.205c0 .693.56 1.25 1.25 1.25h27.5c.692 0 1.25-.557 1.25-1.25 0-8.83-2.925-16.742-7.207-21.202" fill="#D8D8D8"/></g></svg>