<svg width="60" height="60" viewBox="0 0 60 60" xmlns="http://www.w3.org/2000/svg"><title>B47A4D3C-582A-4ACC-A4F0-ABE3195C6A8B</title><g fill="none" fill-rule="evenodd"><path fill="#F3F3F3" d="M-167-255h1444v621H-167z"/><path d="M30 50c-11.027 0-20-8.972-20-20 0-11.027 8.973-20 20-20 11.028 0 20 8.973 20 20 0 11.028-8.972 20-20 20M52.5 0h-45C3.365 0 0 3.365 0 7.5v45C0 56.635 3.365 60 7.5 60h45c4.135 0 7.5-3.365 7.5-7.5v-45C60 3.365 56.635 0 52.5 0" fill="#D8D8D8"/><path d="M37.5 32.5h-8.75c-.69 0-1.25-.56-1.25-1.25V17.5a1.25 1.25 0 0 1 2.5 0V30h7.5a1.25 1.25 0 0 1 0 2.5" fill="#CC9543"/></g></svg>