<svg width="80" height="77" viewBox="0 0 80 77" xmlns="http://www.w3.org/2000/svg"><title>68743194-8015-4D26-84FB-67303F6BD161</title><g fill="none" fill-rule="evenodd"><path d="M80 8.696c0-.96-.78-1.74-1.74-1.74h-1.738V60.87c0 .96-.78 1.739-1.74 1.739H50.436c-4.049 0-5.218 1.168-5.218 5.217 0 .96-.779 1.74-1.739 1.74h-6.956c-.96 0-1.74-.78-1.74-1.74 0-4.049-1.172-5.217-5.217-5.217H5.217c-.96 0-1.739-.78-1.739-1.74V6.958H1.74C.78 6.957 0 7.736 0 8.696v55.652c0 .96.78 1.739 1.74 1.739h20.869c3.134 0 10.434.849 10.434 8.696 0 .96.78 1.739 1.74 1.739h10.434c.96 0 1.74-.78 1.74-1.74 0-7.846 7.297-8.695 10.434-8.695h20.87c.96 0 1.739-.78 1.739-1.74V8.697z" fill="#CC9543"/><path d="M50.435 59.13h20.87c.96 0 1.738-.779 1.738-1.739V1.74C73.043.78 72.264 0 71.304 0h-20.87c-3.144 0-6.337.7-8.695 2.824v63.263h.087c.518-4.734 3.29-6.957 8.609-6.957M29.565 59.13c5.318 0 8.09 2.223 8.609 6.957h.087V2.824C35.903.706 32.723 0 29.565 0H8.695c-.96 0-1.738.78-1.738 1.74V57.39c0 .96.779 1.74 1.739 1.74h20.87z" fill="#D8D8D8"/></g></svg>