<svg width="79" height="69" viewBox="0 0 79 69" xmlns="http://www.w3.org/2000/svg"><title>B8A0DD8C-DDB5-45C3-92B3-CB4B5507A54C</title><g fill="none" fill-rule="evenodd"><path d="M13.373 19.525h3.254a1.628 1.628 0 0 1 0 3.255h-3.254a1.628 1.628 0 0 1 0-3.255m0-13.017h3.254a1.628 1.628 0 0 1 0 3.255h-3.254a1.628 1.628 0 0 1 0-3.255m9.763 8.136c0 .898-.73 1.627-1.628 1.627h-3.254a1.628 1.628 0 0 1 0-3.254h3.254c.899 0 1.628.729 1.628 1.627m0-8.136h3.254a1.628 1.628 0 0 1 0 3.255h-3.254a1.628 1.628 0 0 1 0-3.255m9.762 8.136c0 .898-.729 1.627-1.627 1.627h-3.254a1.628 1.628 0 0 1 0-3.254h3.254c.898 0 1.627.729 1.627 1.627m0-8.136h3.255a1.628 1.628 0 0 1 0 3.255h-3.255a1.628 1.628 0 0 1 0-3.255m9.763 8.136c0 .898-.729 1.627-1.627 1.627H37.78a1.628 1.628 0 0 1 0-3.254h3.254c.898 0 1.627.729 1.627 1.627m0-8.136h3.254a1.628 1.628 0 0 1 0 3.255h-3.254a1.628 1.628 0 0 1 0-3.255m9.763 8.136c0 .898-.73 1.627-1.627 1.627h-3.255a1.628 1.628 0 0 1 0-3.254h3.255c.898 0 1.627.729 1.627 1.627m0-8.136h3.254a1.628 1.628 0 0 1 0 3.255h-3.254a1.628 1.628 0 0 1 0-3.255m9.762 8.136c0 .898-.729 1.627-1.627 1.627h-3.254a1.628 1.628 0 0 1 0-3.254h3.254c.898 0 1.627.729 1.627 1.627m0-8.136h3.255a1.628 1.628 0 0 1 0 3.255h-3.255a1.628 1.628 0 0 1 0-3.255m3.255 16.272h-3.255a1.628 1.628 0 0 1 0-3.255h3.255a1.628 1.628 0 0 1 0 3.255m-9.763 0h-3.254a1.628 1.628 0 0 1 0-3.255h3.254a1.628 1.628 0 0 1 0 3.255m-9.763 0h-3.254a1.628 1.628 0 0 1 0-3.255h3.254a1.628 1.628 0 0 1 0 3.255m-9.762 0h-3.255a1.628 1.628 0 0 1 0-3.255h3.255a1.628 1.628 0 0 1 0 3.255m-9.763 0h-3.254a1.628 1.628 0 0 1 0-3.255h3.254a1.628 1.628 0 0 1 0 3.255M1.983 29.288h5.653c1.861-1.738 4.774-1.894 6.716-.117l.749-1.813c1.24-3.013 5.33-4.087 7.878-1.75 1.1-2.31 3.958-3.434 6.333-2.467a4.96 4.96 0 0 1 2.792 6.147H46.71c-.81-2.444.375-5.138 2.766-6.134 2.503-1.019 5.276.156 6.36 2.454 2.524-2.282 6.576-1.413 7.88 1.76l.746 1.806c1.956-1.786 4.859-1.6 6.717.114h5.653a1.625 1.625 0 0 0 1.578-2.02L71.9 1.232A1.626 1.626 0 0 0 70.322 0H8.492c-.746 0-1.4.508-1.579 1.233L.405 27.267a1.625 1.625 0 0 0 1.578 2.02" fill="#CC9543"/><path d="M77.743 52.513c-6.564-15.848-4.729-11.432-8.41-20.336a1.684 1.684 0 0 0-2.2-.902 1.677 1.677 0 0 0-.9 2.187c.006.01 3.787 9.151 3.787 9.151a1.636 1.636 0 0 1-.885 2.129 1.628 1.628 0 0 1-2.118-.882c-3.931-9.493-5.666-13.697-6.31-15.256a1.68 1.68 0 0 0-2.197-.895 1.656 1.656 0 0 0-.901 2.17l5.05 12.214a1.623 1.623 0 0 1-.875 2.121 1.631 1.631 0 0 1-2.132-.875c-8.493-20.538-2.636-6.378-6.73-16.271a1.696 1.696 0 0 0-2.196-.911 1.69 1.69 0 0 0-.901 2.2L56.56 44.61a1.64 1.64 0 0 1-.872 2.129 1.66 1.66 0 0 1-2.145-.879c-.85-2.106-2.763-6.694-5.047-12.216a1.675 1.675 0 0 0-2.184-.889 1.688 1.688 0 0 0-.908 2.194l7.553 18.22c.4.96-.003 1.728-1.194 1.22l-6.508-2.769c-3.007-1.243-4.244 1.874-2.304 3.57.293.237 8.327 7.43 13.947 11.39a9.354 9.354 0 0 0 8.985.992l6.782-2.808c4.78-1.985 7.055-7.475 5.077-12.252M1.07 52.513C7.636 36.665 5.8 41.08 9.48 32.177a1.684 1.684 0 0 1 2.2-.902 1.677 1.677 0 0 1 .901 2.187c-.006.01-3.788 9.151-3.788 9.151-.335.83.052 1.787.885 2.129a1.628 1.628 0 0 0 2.119-.882c3.931-9.493 5.665-13.697 6.31-15.256a1.68 1.68 0 0 1 2.196-.895 1.651 1.651 0 0 1 .899 2.17l-5.048 12.214c-.345.826.05 1.78.876 2.121a1.631 1.631 0 0 0 2.131-.875c8.494-20.538 2.636-6.378 6.73-16.271a1.696 1.696 0 0 1 2.197-.911 1.692 1.692 0 0 1 .901 2.2L22.253 44.61a1.64 1.64 0 0 0 .872 2.129 1.66 1.66 0 0 0 2.144-.879c.85-2.106 2.763-6.694 5.048-12.216a1.675 1.675 0 0 1 3.088 1.305l-7.55 18.22c-.4.96.003 1.728 1.194 1.22l6.509-2.769c3.007-1.243 4.243 1.874 2.304 3.57-.293.237-8.328 7.43-13.948 11.39a9.354 9.354 0 0 1-8.985.992l-6.782-2.808C1.367 62.78-.908 57.29 1.071 52.513" fill="#FFD89D"/></g></svg>