<svg width="80" height="81" viewBox="0 0 80 81" xmlns="http://www.w3.org/2000/svg"><title>BAE0A38A-9582-401E-BA6E-0ED3BCD8C62E</title><g fill="none" fill-rule="evenodd"><path d="M74.917 26.973l-7.25-2.073v-2.537c3.016-2.273 5-6.04 5-10.303-3.087.783-7.757.617-10.224-1.393-3.563 2.206-9.15 2.01-13.056.25a12.94 12.94 0 0 0-.054 1.143c0 4.263 1.98 8.03 5 10.303V24.9l-7.256 2.073c-2.474.707-4.41 3.277-4.41 5.85v3.334h36.666v-3.334c0-2.576-1.94-5.143-4.416-5.85" fill="#CC9543"/><path d="M62.043 7.723a1.67 1.67 0 0 1 1.42-.473c.524.08.977.4 1.227.863 1.01 1.877 6.05 1.73 8.1 1.114C71.427 3.913 66.913 0 61.557 0c-4.97 0-9.214 3.37-10.89 8.093 3.303 1.877 9.16 1.844 11.376-.37M28 50.763c3.303 1.874 9.163 1.844 11.377-.37a1.66 1.66 0 0 1 1.42-.473c.523.08.976.397 1.226.86 1.01 1.873 6.057 1.733 8.1 1.117-1.363-5.314-5.876-9.23-11.233-9.23-4.97 0-9.213 3.373-10.89 8.096" fill="#4A4A4A"/><path d="M53.583 70.973l-7.25-2.073v-2.537c3.017-2.273 5-6.04 5-10.303-3.086.783-7.756.617-10.223-1.393-3.563 2.206-9.15 2.01-13.057.25A12.94 12.94 0 0 0 28 56.06c0 4.263 1.98 8.03 5 10.303V68.9l-7.257 2.073c-2.473.707-4.41 3.277-4.41 5.85v3.334H58v-3.334c0-2.576-1.94-5.143-4.417-5.85M36.667 32.82c0-2.573-1.94-5.143-4.417-5.85L25 24.897V22.36c3.02-2.273 5-6.04 5-10.303-3.083.783-7.753.62-10.22-1.39-3.563 2.203-9.15 2.01-13.06.246-.03.377-.053.757-.053 1.144 0 4.263 1.983 8.03 5 10.303v2.537L4.413 26.97C1.937 27.677 0 30.25 0 32.82v3.333h36.667V32.82z" fill="#CC9543"/><path d="M18.043 7.723c.374-.373.9-.55 1.42-.473.524.08.977.4 1.227.863 1.01 1.877 6.05 1.73 8.1 1.114C27.427 3.913 22.913 0 17.557 0c-4.97 0-9.214 3.37-10.89 8.093 3.303 1.877 9.16 1.844 11.376-.37" fill="#4A4A4A"/><path d="M21.846 51.178c-.653.654-1.71.65-2.36 0l-8.333-8.336a1.67 1.67 0 0 1 0-2.357 1.674 1.674 0 0 1 2.357 0l8.336 8.337c.65.65.647 1.71 0 2.356M56.486 51.178c.654.654 1.71.65 2.36 0l8.334-8.336a1.67 1.67 0 0 0 0-2.357 1.674 1.674 0 0 0-2.357 0l-8.337 8.337a1.67 1.67 0 0 0 0 2.356" fill="#6ABFC3"/></g></svg>