<svg width="79" height="79" viewBox="0 0 79 79" xmlns="http://www.w3.org/2000/svg"><title>0A6DA82E-9299-48C2-BC6B-393C98C4FDF2</title><g fill="none" fill-rule="evenodd"><path d="M69.788 63.645c2.403-1.794 3.983-4.636 3.983-7.86 0-5.422-4.413-9.835-9.836-9.835S54.1 50.363 54.1 55.786c0 3.2 1.557 6.016 3.928 7.816a14.83 14.83 0 0 0-6.39 5.41 14.806 14.806 0 0 0-6.397-5.4c2.377-1.797 3.941-4.62 3.941-7.826 0-5.423-4.413-9.836-9.836-9.836s-9.836 4.413-9.836 9.836c0 3.206 1.56 6.03 3.94 7.826a14.848 14.848 0 0 0-6.4 5.406 14.844 14.844 0 0 0-6.39-5.416c2.371-1.797 3.932-4.616 3.932-7.816 0-5.423-4.413-9.836-9.836-9.836s-9.836 4.413-9.836 9.836c0 3.223 1.58 6.065 3.983 7.859-5.13 2.36-8.901 7.61-8.901 13.403 0 .908.73 1.64 1.639 1.64h75.41c.905 0 1.64-.732 1.64-1.64 0-5.794-3.771-11.043-8.902-13.403" fill="#CC9543"/><path d="M35.288 36.066a46.121 46.121 0 0 0 4.062 6.642 45.89 45.89 0 0 0 4.069-6.642h-8.131zM46.974 19.672c-.065-2.803-.577-3.902-1.524-6.557H33.256c-.947 2.655-1.459 3.754-1.521 6.557h15.24zM16.45 19.672h12.062c.056-2.793.485-3.895 1.311-6.557H18.41c-1.134 2.508-1.816 3.623-1.96 6.557M44.05 9.836c-1.196-2.34-2.766-4.593-4.698-6.738-1.927 2.145-3.498 4.397-4.695 6.738h9.394zM31.834 22.95c.263 2.7.935 7.08 1.994 9.837H44.88c1.056-2.757 1.728-7.138 1.994-9.836h-15.04zM28.609 22.95H16.497c.256 2.925 1.05 7.319 2.262 9.837h11.633c-.94-2.748-1.55-7.128-1.783-9.836M37.828 45.748a1.603 1.603 0 0 1-.711-.518c-2.263-3.02-4.066-6.089-5.44-9.164H20.671c3.875 5.54 10.046 9.275 17.085 9.754l.072-.072zM47.029 36.066c-1.374 3.072-3.178 6.14-5.44 9.157-.203.272-.482.433-.78.534l.065.066c7.125-.492 13.364-4.226 17.243-9.757H47.029zM31.07 9.836c1.447-3.269 3.48-6.39 6.155-9.288.18-.197.397-.322.626-.407l-.069-.072c-7.449.475-13.75 4.19-17.544 9.767h10.833zM40.85.14c.232.088.455.21.632.406 2.675 2.898 4.708 6.02 6.154 9.292H58.18A22.924 22.924 0 0 0 40.908.08l-.059.06zM48.886 13.115c.823 2.662 1.256 3.764 1.311 6.557h12.017c-.197-2.918-.944-4.04-2.141-6.557H48.886zM62.209 22.95H50.1c-.236 2.709-.846 7.09-1.787 9.837h11.709c1.206-2.518 1.97-6.918 2.187-9.836" fill="#6ABFC3"/></g></svg>