<svg height="432" viewBox="0 0 398 432" width="398" xmlns="http://www.w3.org/2000/svg" xmlns:xlink="http://www.w3.org/1999/xlink"><linearGradient id="a" x1="50%" x2="50%" y1="0%" y2="100%"><stop offset="0" stop-color="#eed9c3"/><stop offset=".974150989" stop-color="#f0b577"/></linearGradient><linearGradient id="b"><stop offset="0" stop-color="#e6e6e6"/><stop offset=".56" stop-color="#d8d8d8"/><stop offset="1" stop-color="#a1a1a1"/></linearGradient><linearGradient id="c" x1="49.005627%" x2="54.721557%" xlink:href="#b" y1="59.791489%" y2="62.034319%"/><linearGradient id="d" x1="43.892856%" x2="57.667237%" xlink:href="#b" y1="53.432%" y2="63.53356%"/><g fill="none" fill-rule="evenodd"><path d="m190 432c98.306685 0 178-2.477153 178-8s-79.693315-10-178-10c-98.3066855 0-178 4.477153-178 10s79.6933145 8 178 8z" fill="#acacac"/><g transform="translate(46 240)"><path d="m120 0v184h-120c12.0498491-13.857326 21.8181818-51.957769 21.8181818-85.0826914v-98.9173086zm94.909091 0v100.906926c0 32.028309 9.442722 69.235748 21.090909 83.093074h-116v-184z" fill="#ba442f"/><path d="m118 0v184h-110c11.045695-13.857326 20-49.724337 20-80.084411v-103.915589zm90 0v103.915589c0 30.360074 8.954305 66.227085 20 80.084411h-110v-184z" fill="#000" fill-opacity=".15"/></g><path d="m96 184h136l32 67.930921-8 36h-184l-8-36z" fill="url(#a)"/><path d="m22.4422231 253.105775 58.3400616-7.719878-1.4586123 54.306841c-.432626 16.107465-4.1640947 41.7823-8.3325238 57.339089l-1.7321615 6.464515c-1.7152991 6.401583-8.2942426 10.200859-14.688843 8.487431l-1.948033-.521974c-6.3971249-1.714104-10.1925876-8.292822-8.477919-14.692052l-.1618058.603867c4.1685497-15.557239 2.8824073-40.374378-2.8663144-55.41398z" fill="#f0be89" transform="matrix(-.96592583 -.25881905 -.25881905 .96592583 181.412574 23.883419)"/><path d="m286.831043 234.298959 58.340062-7.719878-1.458612 54.306841c-.432626 16.107466-4.164095 41.7823-8.332524 57.339089l-1.732162 6.464515c-1.715299 6.401584-8.294242 10.20086-14.688843 8.487432l-1.948033-.521974c-6.397125-1.714105-10.192587-8.292822-8.477919-14.692053l-.161806.603868c4.16855-15.55724 2.882408-40.374379-2.866314-55.41398z" fill="#f0be89" transform="matrix(-.61566148 .78801075 .78801075 .61566148 281.961799 -137.521958)"/><path d="m112 368.658203h24v63.341797h-56v-9.004996c0-8.281512 6.5142483-13.366442 14.5486507-11.357841l17.4513493 4.362837z" fill="#b98337"/><path d="m224 368.402344h24v63.597656h-56v-9.004996c0-8.281512 6.514248-13.366442 14.548651-11.357841l17.451349 4.362837z" fill="#b98337" transform="matrix(-1 0 0 1 440 0)"/><g transform="translate(291 62)"><path d="m45 98h16v267s-1.3652344 3-8 3-8-3-8-3z" fill="#d8d8d8"/><path d="m17 74h72l-9 16h-54z" fill="#d8d8d8"/><path d="m33 90h40l-12 16h-16z" fill="#cfcfcf"/><path d="m27.4228198 74.0123291h-10.4168078l-17.006012-36.8969609 17.3362654-37.1153682 10.0865544 2.83684343-16.3906509 34.27852477zm38.47222-67.07782293-16.0754461 56.26406143h-10.2441569l16.2330486-56.26406143zm40.2846472 30.18086203-17.1898951 36.9000127h-10.2329242l16.3906509-36.9000127-16.3906509-34.27852477 10.0865544-2.83684343z" fill="#ce973d"/></g><circle cx="352" cy="326" fill="#f0be89" r="12"/><path d="m120 216s14.003871 24 44.003871 24 43.996129-24 43.996129-24l64.003871 24s3.319596 25.360808-16 64-24 50-24 50-12.949219 30-68 30-67.9999999-30-67.9999999-30-7.3195959-16.639192-24-50c-16.6804042-33.360808-16-64-16-64z" fill="#e3b261"/><g fill="#dba141"><path d="m168 253-.000136 27.088567c26.194984 1.091831 72.000136 11.911433 72.000136 11.911433v4h-152v-4s45.80631-10.819875 72.001129-11.911475l-.001129-27.088525z"/><path d="m128 312s24.064299-8 36-8 36 8 36 8v8h-72z"/><path d="m128 324h72v16h-72z"/><path d="m128 344h72v16h-72z"/></g><path d="m0 200h72l40 24-40 24h-24c-13.254834 0-28.8062735-9.612547-34.7364607-21.472921z" fill="#ba442f"/><circle cx="68" cy="236" fill="#d8d8d8" r="20"/><circle cx="68" cy="236" fill="#e3b261" r="16"/><path d="m216 200h72l40 24-40 24h-24c-13.254834 0-28.806273-9.612547-34.736461-21.472921z" fill="#ba442f" transform="matrix(-1 0 0 1 544 0)"/><g transform="translate(240 216)"><circle cx="20" cy="20" fill="#d8d8d8" r="20" transform="matrix(-1 0 0 1 40 0)"/><circle cx="20" cy="20" fill="#e3b261" r="16"/></g><g transform="translate(67)"><path d="m38.6000423 154.766881 19.5328441-68.6567235h78.1313766l19.532844 68.6567235z" fill="#eed9c3"/><ellipse cx="122.253354" cy="120.93059" fill="#353535" rx="5.519982" ry="5.525463"/><path d="m85.7230286 114.648302c0-1.929806-1.5634089-3.493985-3.4901286-3.493985h-16.4591557c-1.9267197 0-3.4901286 1.564179-3.4901286 3.493985v10.818255c0 2.893732 2.3439413 5.240001 5.2340209 5.240001h5.9911139c3.2393269 0 6.3450491-1.288493 8.6374237-3.581971 2.2900306-2.291522 3.5768544-5.402284 3.5768544-8.644046z" fill="#a78347"/><g transform="translate(154)"><path d="m20.3299506 76.5579162-19.53284401 19.5522413v-19.5522413l24.41605501-19.5522412z" fill="#dba141"/><path d="m25.2131616 58.005675-24.41605501 19.5522413v-19.5522413l29.29926611-19.5522412z" fill="#e1a94f"/><path d="m1.08740234 20.4921875 38.77539236-20.14323625-9.766422 39.10448255-29.00897036 20.1432362z" fill="#e3b261"/></g><path d="m34.7168313 76.5579162-19.532844 19.5522413v-19.5522413l24.416055-19.5522412z" fill="#dba141" transform="matrix(-1 0 0 1 54.78403 0)"/><path d="m34.7168313 58.005675-24.4160551 19.5522413v-19.5522413l29.2992661-19.5522412z" fill="#e1a94f" transform="matrix(-1 0 0 1 49.900818 0)"/><path d="m.53435422 19.8408203 38.38434698-19.49186905-9.7664221 39.10448255-28.61792488 19.491869z" fill="#e3b261" transform="matrix(-1 0 0 1 39.453056 0)"/><path d="m155.797107 57.005675s-29.299266-19.5522412-58.5985326-19.5522412c-29.299266 0-58.5985321 19.5522412-58.5985321 19.5522412v58.656724l7.8131376 15.641793 4.1897127-16.15655c4.1587007-16.0369597 18.2436119-20.9328934 31.4499345-10.942632l15.1457473 11.457389 15.1457476-11.457389c13.210618-9.9935111 27.290114-5.0986449 31.449934 10.942632l4.189713 16.15655 7.813138-15.641793z" fill="#e3b261"/><g transform="translate(22 115)"><path d="m55.6657304 29.9907606-15.6262752 91.8955344-21.5466803-15.641793 17.6401115-66.4776207z" fill="url(#c)"/><path d="m131.904374 29.9907606-15.626275 91.8955344-21.5466805-15.641793 17.6401115-66.4776207z" fill="url(#c)" transform="matrix(-1 0 0 1 226.635792 0)"/><path d="m16.6000423.66239875-15.62627523 58.65672375 19.53284403 39.1044825 15.6262753-58.6567237z" fill="url(#d)"/><path d="m129.890538.66239875-15.626275 58.65672375 19.532844 39.1044825 15.626275-58.6567238z" fill="url(#d)" transform="matrix(-1 0 0 1 263.687644 0)"/><path d="m55.6657304 29.9907606-17.5795596 95.8059824 37.1124036 19.552241 37.1124036-19.552241-17.5795595-95.8059824-18.0756939-9.046822-1.4571502-.7292986z" fill="#e6e6e6"/></g><path d="m104.199126 148.901209h-13.6729906v4.891971c0 1.814448.7207619 3.552642 2.0021165 4.835269s3.0178244 2.004105 4.8304723 2.004105h.0078132c1.8126479 0 3.5491176-.721478 4.8304726-2.004105 1.281354-1.282627 2.002116-3.020821 2.002116-4.835269z" fill="#353535"/></g></g></svg>