<svg xmlns="http://www.w3.org/2000/svg" xmlns:xlink="http://www.w3.org/1999/xlink" width="12" height="12" viewBox="0 0 12 12"><defs><path id="b" d="M0 16h56L72 0l16 16h56v112H0z"/><filter id="a" width="200%" height="200%" x="-50%" y="-50%" filterUnits="objectBoundingBox"><feOffset dy="2" in="SourceAlpha" result="shadowOffsetOuter1"/><feGaussianBlur in="shadowOffsetOuter1" result="shadowBlurOuter1" stdDeviation="2"/><feColorMatrix in="shadowBlurOuter1" values="0 0 0 0 0 0 0 0 0 0 0 0 0 0 0 0 0 0 0.2 0"/></filter></defs><g fill="none" fill-rule="evenodd"><g transform="translate(-16 -65)"><use fill="#000" filter="url(#a)" xlink:href="#b"/><use fill="#FFF" xlink:href="#b"/></g><path fill="#CC9543" d="M10.26 3.13H7.225C7.108 3.725 6.603 4.174 6 4.174c-.604 0-1.108-.449-1.225-1.044H1.76a.256.256 0 0 1-.25-.26c0-.144.112-.261.25-.261h3.015c.117-.595.621-1.044 1.225-1.044.603 0 1.108.449 1.225 1.044h3.035c.138 0 .25.117.25.26 0 .145-.112.261-.25.261m0 3.13H5.225C5.108 6.857 4.603 7.305 4 7.305c-.604 0-1.108-.448-1.225-1.043H1.76A.256.256 0 0 1 1.51 6c0-.144.112-.26.25-.26h1.015c.117-.596.621-1.044 1.225-1.044.603 0 1.108.448 1.225 1.043h5.035c.138 0 .25.117.25.261 0 .144-.112.26-.25.26m0 3.131H6.225c-.117.595-.622 1.044-1.225 1.044-.604 0-1.108-.449-1.225-1.044H1.76a.256.256 0 0 1-.25-.26c0-.145.112-.261.25-.261h2.015c.117-.595.621-1.044 1.225-1.044.603 0 1.108.449 1.225 1.044h4.035c.138 0 .25.116.25.26 0 .144-.112.261-.25.261M11.25 0H.75C.336 0 0 .351 0 .783v10.434c0 .432.336.783.75.783h10.5c.414 0 .75-.351.75-.783V.783C12 .35 11.664 0 11.25 0"/></g></svg>