<svg xmlns="http://www.w3.org/2000/svg" xmlns:xlink="http://www.w3.org/1999/xlink" width="12" height="11" viewBox="0 0 12 11"><defs><path id="b" d="M0 16h56L72 0l16 16h56v112H0z"/><filter id="a" width="200%" height="200%" x="-50%" y="-50%" filterUnits="objectBoundingBox"><feOffset dy="2" in="SourceAlpha" result="shadowOffsetOuter1"/><feGaussianBlur in="shadowOffsetOuter1" result="shadowBlurOuter1" stdDeviation="2"/><feColorMatrix in="shadowBlurOuter1" values="0 0 0 0 0 0 0 0 0 0 0 0 0 0 0 0 0 0 0.2 0"/></filter></defs><g fill="none" fill-rule="evenodd"><g transform="translate(-16 -98)"><use fill="#000" filter="url(#a)" xlink:href="#b"/><use fill="#FFF" xlink:href="#b"/></g><g fill="#CC9543"><path d="M2.75 6.5a.75.75 0 1 1 0-1.5H7V.25A.25.25 0 0 0 6.75 0H.25A.25.25 0 0 0 0 .25v10.5c0 .138.112.25.25.25h6.5a.25.25 0 0 0 .25-.25V6.5H2.75z"/><path d="M2.25 6h8.396L8.573 8.073a.25.25 0 1 0 .354.354l2.5-2.5a.25.25 0 0 0 0-.354l-2.5-2.5a.25.25 0 1 0-.354.354L10.646 5.5H2.25a.25.25 0 0 0 0 .5"/></g></g></svg>