<svg xmlns="http://www.w3.org/2000/svg" xmlns:xlink="http://www.w3.org/1999/xlink" width="12" height="14" viewBox="0 0 12 14"><defs><path id="b" d="M0 16h56L72 0l16 16h56v112H0z"/><filter id="a" width="200%" height="200%" x="-50%" y="-50%" filterUnits="objectBoundingBox"><feOffset dy="2" in="SourceAlpha" result="shadowOffsetOuter1"/><feGaussianBlur in="shadowOffsetOuter1" result="shadowBlurOuter1" stdDeviation="2"/><feColorMatrix in="shadowBlurOuter1" values="0 0 0 0 0 0 0 0 0 0 0 0 0 0 0 0 0 0 0.2 0"/></filter></defs><g fill="none" fill-rule="evenodd"><g transform="translate(-16 -32)"><use fill="#000" filter="url(#a)" xlink:href="#b"/><use fill="#FFF" xlink:href="#b"/></g><g fill="#CC9543"><path d="M.571 13.417H11.43V.583H.57v12.834zM12 .292v13.416a.289.289 0 0 1-.286.292H.286A.289.289 0 0 1 0 13.708V.292C0 .13.128 0 .286 0h11.428c.158 0 .286.13.286.292z"/><path d="M10.571 1.167H1.43a.289.289 0 0 0-.286.291v9.334c0-.126.079-.237.195-.277l3.233-1.1v-.793a1.252 1.252 0 0 1-.345-.446l-.002-.004c-.14-.289-.203-.646-.219-.967-.246-.167-.371-.553-.371-.865 0-.257.08-.525.284-.679-.166-.399-.383-.971-.147-1.334.135-.207.369-.281.616-.27.318-.617 1.2-.849 1.899-.849.704 0 1.58.227 1.905.867.164.324.217.87-.088 1.593.192.154.266.412.266.663 0 .315-.122.704-.374.874-.026.512-.166 1.102-.566 1.417v.793l3.233 1.1c.116.04.195.151.195.277V1.458a.289.289 0 0 0-.286-.291"/></g></g></svg>