<?xml version="1.0" encoding="utf-8"?>
<!-- Generator: Adobe Illustrator 17.1.0, SVG Export Plug-In . SVG Version: 6.00 Build 0)  -->
<!DOCTYPE svg PUBLIC "-//W3C//DTD SVG 1.1//EN" "http://www.w3.org/Graphics/SVG/1.1/DTD/svg11.dtd">
<svg version="1.1" xmlns="http://www.w3.org/2000/svg" xmlns:xlink="http://www.w3.org/1999/xlink" x="0px" y="0px"
	 viewBox="0 0 74.2 71.2" enable-background="new 0 0 74.2 71.2" xml:space="preserve">
<g id="Layer_1">
	<path fill="#0EAAD3" d="M64.2,50c0,6.6-5.4,12-12,12H21.6c-6.6,0-12-5.4-12-12V19.3c0-6.6,5.4-12,12-12h30.7c6.6,0,12,5.4,12,12V50
		z"/>
	<path fill="#59A445" d="M21.6,64c-7.7,0-14-6.3-14-14V19.3c0-7.7,6.3-14,14-14h30.7c7.7,0,14,6.3,14,14V50c0,7.7-6.3,14-14,14H21.6
		z"/>
	<path fill="#59A445" d="M64.2,50c0,6.6-5.4,12-12,12H21.6c-6.6,0-12-5.4-12-12V19.3c0-6.6,5.4-12,12-12h30.7c6.6,0,12,5.4,12,12V50
		z"/>
	<path fill="#FFFFFF" d="M21.6,59c-5,0-9-4-9-9V19.3c0-5,4-9,9-9h30.7c5,0,9,4,9,9V50c0,5-4,9-9,9H21.6z"/>
</g>
<g id="Layer_4">
	<path fill="#0EAAD3" d="M64.2,50c0,6.6-5.4,12-12,12H21.6c-6.6,0-12-5.4-12-12V19.3c0-6.6,5.4-12,12-12h30.7c6.6,0,12,5.4,12,12V50
		z"/>
	<path fill="#CCCCCC" d="M21.6,64c-7.7,0-14-6.3-14-14V19.3c0-7.7,6.3-14,14-14h30.7c7.7,0,14,6.3,14,14V50c0,7.7-6.3,14-14,14H21.6
		z"/>
	<path fill="#CCCCCC" d="M64.2,50c0,6.6-5.4,12-12,12H21.6c-6.6,0-12-5.4-12-12V19.3c0-6.6,5.4-12,12-12h30.7c6.6,0,12,5.4,12,12V50
		z"/>
	<path fill="#FFFFFF" d="M21.6,59c-5,0-9-4-9-9V19.3c0-5,4-9,9-9h30.7c5,0,9,4,9,9V50c0,5-4,9-9,9H21.6z"/>
	
		<rect x="23" y="31.7" transform="matrix(0.7071 -0.7071 0.7071 0.7071 -12.5885 40.2531)" fill="#CCCCCC" width="38.7" height="7.3"/>
	
		<rect x="15.3" y="37.7" transform="matrix(-0.7071 -0.7071 0.7071 -0.7071 15.4013 89.0188)" fill="#CCCCCC" width="21.7" height="7.3"/>
</g>
<g id="Layer_2" display="none">
	<path display="inline" fill="#0EAAD3" d="M64.2,50c0,6.6-5.4,12-12,12H21.6c-6.6,0-12-5.4-12-12V19.3c0-6.6,5.4-12,12-12h30.7
		c6.6,0,12,5.4,12,12V50z"/>
	<path display="inline" fill="#59A445" d="M21.6,64c-7.7,0-14-6.3-14-14V19.3c0-7.7,6.3-14,14-14h30.7c7.7,0,14,6.3,14,14V50
		c0,7.7-6.3,14-14,14H21.6z"/>
	<path display="inline" fill="#59A445" d="M64.2,50c0,6.6-5.4,12-12,12H21.6c-6.6,0-12-5.4-12-12V19.3c0-6.6,5.4-12,12-12h30.7
		c6.6,0,12,5.4,12,12V50z"/>
	<path display="inline" fill="#FFFFFF" d="M21.6,59c-5,0-9-4-9-9V19.3c0-5,4-9,9-9h30.7c5,0,9,4,9,9V50c0,5-4,9-9,9H21.6z"/>
	
		<rect x="23" y="31.7" transform="matrix(0.7071 -0.7071 0.7071 0.7071 -12.5885 40.2531)" display="inline" fill="#59A445" width="38.7" height="7.3"/>
	
		<rect x="15.3" y="37.7" transform="matrix(-0.7071 -0.7071 0.7071 -0.7071 15.4013 89.0188)" display="inline" fill="#59A445" width="21.7" height="7.3"/>
</g>
<g id="Layer_3" display="none">
	<path display="inline" fill="#59A445" d="M21.6,64c-7.7,0-14-6.3-14-14V19.3c0-7.7,6.3-14,14-14h30.7c7.7,0,14,6.3,14,14V50
		c0,7.7-6.3,14-14,14H21.6z"/>
	<path display="inline" fill="#59A445" d="M64.2,50c0,6.6-5.4,12-12,12H21.6c-6.6,0-12-5.4-12-12V19.3c0-6.6,5.4-12,12-12h30.7
		c6.6,0,12,5.4,12,12V50z"/>
	
		<rect x="23.2" y="31.7" transform="matrix(0.7071 -0.7071 0.7071 0.7071 -12.5078 40.4478)" display="inline" fill="#FFFFFF" width="38.7" height="7.3"/>
	
		<rect x="15.6" y="37.7" transform="matrix(-0.7071 -0.7071 0.7071 -0.7071 15.8714 89.2135)" display="inline" fill="#FFFFFF" width="21.7" height="7.3"/>
</g>
</svg>
